<svg version="1.2" xmlns="http://www.w3.org/2000/svg" viewBox="0 0 380 216" width="380" height="216">
	<title>us-co-arvada</title>
	<style>
		.s0 { fill: #003365 } 
		.s1 { fill: #cb0000 } 
		.s2 { fill: #fefefe } 
	</style>
	<path id="Shape 2" class="s0" d="m0 0h380v216h-380z"/>
	<path id="Shape 3" class="s1" d="m14 14h352v188h-352z"/>
	<path id="Shape 4" class="s2" d="m22 22h337v172h-337z"/>
	<path id="CITY OF" class="s0" aria-label="CITY OF"  d="m49.2 165.7q0.3 0 0.3 0.2 0.1 0.2 0.1 0.4 0 0.6 0.1 1.3 0 0.7 0.1 1.3 0 0.3 0.1 0.6 0 0.3 0 0.6 0 0.2-0.1 0.3 0 0.1-0.1 0.1-0.2 0-0.3-0.1 0-0.2-0.2-0.6-0.4-0.8-1-1.5-0.6-0.7-1.4-1.3-0.8-0.5-1.7-0.9-0.9-0.3-2-0.3-1 0-1.8 0.4-0.9 0.4-1.5 1.2-0.6 0.8-1 1.8-0.3 1.1-0.3 2.4 0 1.5 0.4 2.8 0.5 1.2 1.3 2.2 0.8 0.9 2 1.5 1.1 0.5 2.5 0.5 0.5 0 1.1-0.1 0.6-0.2 1.2-0.5 0.7-0.3 1.2-0.6 0.5-0.4 0.9-0.9 0.2-0.1 0.4-0.4 0.1-0.2 0.3-0.2 0.3 0 0.3 0.2 0 0.2-0.1 0.4-0.1 0.3-0.3 0.4-0.5 0.8-1.2 1.4-0.7 0.5-1.6 1-0.9 0.4-1.8 0.6-0.9 0.2-1.9 0.2-1.6 0-3-0.5-1.4-0.5-2.4-1.5-1-0.9-1.6-2.2-0.5-1.3-0.5-2.9 0-1.6 0.6-3.1 0.6-1.5 1.7-2.6 1.1-1 2.5-1.7 1.5-0.6 3.1-0.6 0.5 0 1.1 0.1 0.6 0.1 1.2 0.3 0.6 0.1 1.2 0.3 0.5 0.2 0.9 0.4 0.1 0.1 0.2 0.1 0.2 0.1 0.3 0.1 0.2 0 0.2-0.1 0.1-0.1 0.2-0.2 0.1-0.1 0.1-0.2 0.1-0.1 0.2-0.1zm2.8 13.9q0-0.1 0.1-0.2 0.2-0.2 0.6-0.2 0.6-0.1 0.8-0.7 0.2-0.5 0.3-1.4 0.1-0.6 0.1-1.4 0.1-0.9 0.1-1.9 0-1 0-2.1 0-1.2 0-2.3 0-0.1 0-0.4 0-0.2 0-0.5 0-0.3 0-0.5 0-0.3 0-0.4-0.1-0.7-0.4-1-0.3-0.4-1.1-0.5-0.7-0.1-0.9-0.2-0.2-0.2-0.2-0.5 0-0.1 0.1-0.2 0-0.1 0.3-0.1 0.2 0 0.5 0 0.3 0 0.7 0.1 0.4 0 1 0.1 0.6 0 1.4 0 1 0 1.6-0.1 0.6 0 1.1 0 0.4 0 0.4 0.4 0 0.3-0.7 0.4-0.4 0-0.6 0.2-0.2 0.2-0.3 0.8-0.1 1-0.1 2.2 0 1.2-0.1 2.4 0 1.2 0 2.3 0 1.1 0 1.9 0 1 0 1.6 0.1 0.7 0.3 1.1 0.1 0.3 0.4 0.5 0.4 0.1 0.9 0.2 0.7 0 0.8 0.1 0.2 0.1 0.2 0.4 0 0.2-0.1 0.3-0.2 0-0.6 0-0.4 0-1.1 0-0.7-0.1-1.6-0.1-1.4 0-2.2 0.1-0.9 0.1-1.2 0.1-0.2 0-0.4-0.1-0.1-0.2-0.1-0.4zm12 0.1q0-0.2 0.1-0.3 0.2-0.1 0.4-0.2 0.2 0 0.4-0.1 0.3 0 0.6-0.1 0.6-0.2 0.7-0.5 0.2-0.3 0.3-1 0-0.6 0-1.5 0.1-0.9 0.1-1.8 0-0.9 0-1.8 0-0.9 0-1.7 0-0.9 0-1.8 0-0.9-0.1-1.8 0-0.4-0.2-0.6-0.2-0.2-0.8-0.2-0.6 0-1.1 0-0.6 0.1-1.2 0.2-0.8 0.1-1.1 0.5-0.3 0.3-0.5 0.9-0.1 0.3-0.1 0.5-0.1 0.3-0.2 0.5-0.1 0.2-0.2 0.4-0.2 0.1-0.4 0.1-0.4 0-0.4-0.5 0-0.1 0.1-0.5 0-0.3 0.1-0.8 0.1-0.4 0.1-0.8 0.1-0.5 0.2-0.8 0-0.6 0.1-0.8 0.2-0.2 0.4-0.2 1.4 0 3.2 0.1 1.8 0.1 3.5 0.1 0.8 0 1.8 0 1-0.1 1.9-0.1 0.9 0 1.7-0.1 0.8 0 1.2 0 0.7 0 0.7 0.5 0 1.2 0.1 1.8 0.1 0.7 0.1 0.9 0 0.4-0.4 0.4-0.2 0-0.3-0.3-0.1-0.3-0.4-0.8-0.2-0.4-0.6-0.7-0.4-0.3-0.8-0.3-0.8-0.1-1.4-0.1-0.6 0-1.3 0-0.4 0-0.6 0.2-0.2 0.3-0.3 0.7 0 0.5 0 0.9 0 0.5-0.1 1 0 0.5 0 1 0 0.5 0 0.8 0 1.1 0 2.1 0.1 1 0.1 1.8 0 0.9 0 1.5 0.1 0.6 0.1 0.8 0.1 0.9 0.5 1.2 0.4 0.4 0.9 0.6 0.3 0.1 0.5 0.1 0.3 0.1 0.5 0.1 0.3 0.1 0.4 0.1 0.1 0.1 0.1 0.3 0 0.2-0.1 0.3-0.1 0.1-0.3 0.1-0.5 0-1.5-0.1-1-0.1-2.3-0.1-1.5 0-2.3 0.1-0.9 0.1-1.5 0.1-0.4 0-0.4-0.3zm16.1 0q0-0.1 0.1-0.2 0.1-0.1 0.2-0.1 0.2 0 0.5-0.1 0.2 0 0.5-0.1 0.4-0.2 0.7-0.4 0.3-0.3 0.4-0.7 0.1-0.4 0.2-1.1 0-0.7 0-1.9 0-0.5-0.1-0.8-0.1-0.4-0.2-0.7-0.4-0.8-0.9-1.7-0.5-0.9-1-1.7-0.5-0.9-1-1.7-0.4-0.8-0.8-1.4-0.2-0.3-0.6-0.6-0.3-0.3-0.7-0.5-0.1-0.1-0.4-0.1-0.2-0.1-0.4-0.2-0.1 0-0.3-0.1-0.1-0.1-0.1-0.3 0-0.1 0.1-0.2 0.1-0.1 0.4-0.1 0.2 0 0.4 0.1 0.2 0 0.5 0 0.2 0.1 0.6 0.1 0.3 0 0.9 0 0.9 0 1.5 0 0.6 0 1-0.1 0.4 0 0.6 0 0.2-0.1 0.4-0.1 0.2 0 0.3 0.1 0.2 0 0.2 0.3 0 0.3-0.6 0.3-0.4 0.1-0.6 0.2-0.2 0.1-0.2 0.5 0 0.2 0.3 0.9 0.4 0.7 0.8 1.6 0.5 0.9 0.9 1.7 0.5 0.8 0.8 1.3 0.2 0.3 0.5 0.3 0.1 0 0.2-0.1 0.1-0.1 0.2-0.2 0.3-0.4 0.7-1.1 0.4-0.7 0.8-1.5 0.4-0.7 0.7-1.4 0.3-0.6 0.3-1 0-0.3-0.3-0.7-0.4-0.3-0.9-0.4-0.4-0.1-0.8-0.2-0.3 0-0.3-0.3 0-0.2 0.1-0.2 0.2-0.1 0.5-0.1 0.6 0 1.2 0.1 0.6 0.1 1.3 0.1 0.7 0 1.2-0.1 0.6-0.1 1-0.1 0.2 0 0.4 0.1 0.1 0.1 0.1 0.2 0 0.2-0.1 0.2-0.1 0.1-0.2 0.2-0.2 0-0.4 0.1-0.2 0-0.4 0.1-0.5 0.3-0.9 0.8-0.4 0.5-0.8 1.2-0.2 0.4-0.7 1.1-0.3 0.7-0.8 1.5-0.4 0.7-0.9 1.5-0.4 0.7-0.7 1.1-0.1 0.2-0.2 0.6 0 0.3 0 0.6 0 0.4 0 0.9 0 0.4 0 0.9 0 0.5 0 1 0 0.5 0.1 0.8 0 0.6 0.4 0.9 0.5 0.3 0.9 0.4 0.6 0.1 1 0.2 0.4 0 0.4 0.3 0 0.2-0.1 0.2-0.1 0-0.5 0-0.6 0-1.4 0-0.9-0.2-1.7-0.2-0.8 0-1.4 0.1-0.5 0-1 0.1-0.4 0-0.8 0-0.4 0-0.7 0-0.1 0-0.3 0-0.1 0-0.1-0.2zm23.1-7.8q0 1.2 0.4 2.5 0.3 1.3 1.1 2.4 0.7 1.1 1.9 1.7 1.1 0.7 2.8 0.7 0.9 0 1.8-0.5 0.9-0.4 1.5-1.3 0.7-0.8 1.1-2 0.3-1.1 0.3-2.4 0-1.5-0.4-2.8-0.5-1.3-1.3-2.3-0.8-1-2-1.5-1.1-0.5-2.5-0.5-1.3 0-2.2 0.5-0.8 0.5-1.4 1.4-0.6 0.8-0.8 1.9-0.3 1.1-0.3 2.2zm5.7-7q1.7 0 3.2 0.6 1.4 0.5 2.5 1.4 1.1 0.9 1.6 2.3 0.6 1.3 0.6 2.9 0 1.7-0.6 3.2-0.6 1.4-1.7 2.5-1 1.1-2.5 1.7-1.4 0.6-3 0.6-1.9 0-3.5-0.4-1.6-0.5-2.7-1.5-1.2-0.9-1.8-2.4-0.7-1.4-0.7-3.4 0-1.6 0.7-2.9 0.7-1.4 1.8-2.4 1.2-1 2.8-1.6 1.5-0.6 3.3-0.6zm12.1 14.9q-1 0-1.7 0.1-0.6 0.1-1.3 0.1-0.6 0-0.6-0.4 0-0.2 0.2-0.2 0.1-0.1 0.4-0.2 0.4-0.1 0.6-0.4 0.3-0.4 0.4-0.8 0-0.4 0-1.1 0.1-0.6 0.1-1.4 0-0.8 0-1.8 0-0.9 0-1.9 0-0.8 0-1.6 0-0.8 0-1.5 0-0.6-0.1-1.1 0-0.5 0-0.7-0.1-0.4-0.4-0.7-0.2-0.2-0.9-0.4-0.7-0.1-1-0.1-0.2-0.1-0.2-0.4 0-0.1 0.1-0.2 0.2-0.1 0.4-0.1 0.2 0 0.6 0 0.4 0 0.8 0 0.6 0.1 1.1 0.1 0.6 0 1.1 0 3.3 0 5.3 0 2-0.1 2.6-0.1 0.1 0 0.2 0.1 0.1 0.1 0.1 0.3 0.1 0.6 0.1 1.2 0.1 0.5 0.1 1 0 0.4-0.1 0.7 0 0.3-0.3 0.3-0.4 0-0.4-0.4 0-1.1-0.7-1.6-0.7-0.6-2.4-0.6-0.6 0-1.3 0.1-0.6 0-0.8 0-0.4 0-0.7 0.1-0.3 0.1-0.4 0.6 0 0 0 0.3 0 0.2-0.1 0.5 0 0.3 0 0.5 0 0.2 0 0.3 0 0.7 0 1.4 0.1 0.6 0.1 0.9 0 0.5 0.2 0.6 0.3 0.1 0.6 0.1h1q0.6 0 1.1 0 0.5-0.1 0.8-0.3 0.4-0.2 0.6-0.5 0.3-0.4 0.5-0.9 0.1-0.3 0.3-0.3 0.3 0 0.3 0.4 0 0.2 0 0.6 0 0.3 0 0.7 0 0.3 0 0.7 0.1 0.4 0.1 0.8 0 0.5 0.1 0.9 0 0.4 0 0.8 0 0.2-0.1 0.3-0.1 0.1-0.2 0.1-0.2 0-0.3-0.2-0.1-0.3-0.2-0.5-0.1-0.4-0.2-0.7-0.1-0.3-0.3-0.4-0.2-0.2-0.5-0.2-0.3-0.1-0.7-0.1-0.6-0.1-1.1-0.1-0.5 0-1.2 0-0.7 0-0.7 0.5-0.1 0.3-0.1 0.6 0 0.3 0 0.6 0 1.5 0 2.3 0.1 0.8 0.2 1.4 0.1 0.4 0.5 0.7 0.4 0.3 1 0.4 0.2 0.1 0.4 0.1 0.2 0 0.3 0 0.2 0.1 0.3 0.2 0.1 0 0.1 0.2 0 0.2-0.2 0.4-0.2 0.1-0.6 0.1-0.5 0-1.3-0.1-0.8-0.1-1.6-0.1z"/>
	<path id="ARVADA" class="s0" aria-label="ARVADA"  d="m152.4 177.7q2 0.2 3.8 0.2 1.9 0 3.9 0 0.4 0 0.6-0.1 0.1-0.3 0.1-0.4 0-0.4-0.2-1-0.3-0.5-0.5-0.9-0.7-1.2-1.5-2.6-0.9-1.3-1.8-2.7-0.2-0.4-0.6-0.4-0.2 0-0.4 0.4-0.3 0.6-0.8 1.3-0.5 0.8-1 1.7-0.5 0.8-0.9 1.7-0.5 0.8-1 1.6-0.1 0.2-0.2 0.4 0 0.2 0 0.3 0 0.1 0.1 0.3 0.2 0.1 0.4 0.2zm-10.7 9.8q0-0.3 0.1-0.4 0.1-0.1 0.3-0.2 0.2 0 0.4 0 0.2-0.1 0.5-0.2 0.5-0.1 1.1-0.6 0.6-0.4 1.1-1 0.4-0.6 0.8-1.2 0.5-0.7 0.8-1.2 2.6-4.8 5.2-9.4 2.7-4.7 5.8-9.5 0.1-0.2 0.5-0.2 0.3 0 0.5 0.2 0.7 1.3 1.7 2.9 0.9 1.6 1.9 3.3 1.1 1.8 2.1 3.6 1.2 1.9 2.2 3.6 1 1.8 1.9 3.4 0.9 1.5 1.6 2.7 0.7 1.3 1.3 2.2 0.8 0.8 2.1 1.3 0.4 0.1 0.6 0.1 0.3 0 0.6 0.1 0.2 0.1 0.4 0.2 0.1 0.2 0.1 0.4 0 0.3-0.3 0.4-0.2 0.1-0.7 0.1-0.5 0-1.2-0.1-0.7 0-1.5-0.1-0.8-0.1-1.7-0.1-0.8-0.1-1.6-0.1-2 0-3.3 0.2-1.3 0.2-2.6 0.2-0.7 0-0.7-0.5 0-0.3 0.5-0.4 0.5-0.2 1.1-0.5 1.5-0.6 1.5-1.8 0-0.3-0.2-0.8-0.2-0.5-0.5-1.2-0.3-0.6-0.7-1.2-0.3-0.6-0.7-1.2-0.3-0.5-0.6-0.7-0.3-0.2-0.9-0.2-0.4-0.1-1.1-0.1-0.7 0-1.6-0.1-0.9 0-1.9 0-1 0-1.8 0-1.3 0-2.1 0-0.7 0-1.2 0.2-0.5 0.1-0.7 0.2-0.3 0.2-0.5 0.4-0.4 0.5-0.8 1.1-0.3 0.6-0.6 1.2-0.3 0.5-0.4 1-0.2 0.5-0.2 0.9 0 0.7 0.5 1.3 0.5 0.5 1.1 0.7 0.6 0.2 1.1 0.3 0.6 0.1 1.1 0.2 0.5 0 0.8 0.2 0.3 0.1 0.3 0.4 0 0.3-0.2 0.4-0.3 0.2-1 0.2-0.9 0-2.3-0.2-1.5-0.2-3.1-0.2-1 0-2.1 0.1-1.1 0.1-1.8 0.1-1 0-1-0.4zm44.1-13.9q0 0.9 0.2 1.2 0.2 0.4 0.6 0.5 0.3 0 0.9 0.1 0.7 0 1.1 0 1 0 1.8 0 0.7-0.1 1.3-0.2 0.6-0.1 1-0.3 0.4-0.2 0.8-0.5 0.4-0.4 0.8-1.1 0.3-0.7 0.3-1.7 0-1.3-0.4-2.5-0.5-1.1-1.3-2-0.9-0.8-2.1-1.3-1.2-0.5-2.7-0.5-1 0-1.5 0.4-0.6 0.4-0.6 1.3-0.1 1-0.1 1.8 0 0.8-0.1 1.6 0 0.8 0 1.5 0 0.8 0 1.7zm-7.3 13.9q0-0.2 0.1-0.3 0.2-0.1 0.3-0.1 0.2-0.1 0.4-0.2 0.3 0 0.6-0.2 0.7-0.5 1-1.2 0.3-0.8 0.3-1.7 0.1-1.6 0.2-2.9 0-1.4 0.1-2.7 0-1.3 0-2.6 0-1.3 0-2.8 0-0.8 0-1.8 0-1.1 0-2-0.1-1.6-0.6-2.3-0.4-0.8-1.6-1.2-0.5-0.1-0.9-0.1-0.4-0.1-0.7-0.2-0.2-0.1-0.4-0.2-0.2-0.2-0.2-0.5 0-0.2 0.2-0.4 0.3-0.1 0.6-0.1 0.8 0 1.8 0.1 1 0.1 2.1 0.1 1.7 0 3.4-0.1 1.9-0.1 3.8-0.1 2.6 0 4.5 0.4 2 0.4 3.1 1.4 1 0.9 1.6 2.1 0.6 1.1 0.6 2.2 0 2.2-1.1 3.5-1.1 1.3-3.1 2.2-0.2 0.1-0.2 0.2 0 0.2 0.1 0.4 0.8 1.3 1.8 3 1.1 1.7 2.5 4 0.4 0.5 0.8 1 0.3 0.4 0.7 0.8 0.4 0.4 0.8 0.6 0.4 0.2 0.8 0.2 0.4 0 0.7-0.1 0.3-0.1 0.7-0.1 0.4 0 0.4 0.4 0 0.2-0.4 0.6-0.4 0.3-1 0.6-0.5 0.3-1.3 0.5-0.7 0.2-1.4 0.2-1.9 0-3.2-1.3-1.4-1.3-2.6-3.3-0.3-0.6-0.7-1.3-0.4-0.8-0.9-1.6-0.4-0.9-0.9-1.7-0.5-0.7-0.9-1.3-0.6-0.6-1.3-0.7-0.8-0.1-1.7-0.1-1.1 0-1.4 0.2-0.3 0.1-0.3 0.9 0 1.4 0.1 3.2 0 1.8 0.2 3.3 0.1 0.7 0.6 1.3 0.5 0.7 1.2 0.9 0.3 0.2 0.7 0.2 0.3 0.1 0.6 0.1 0.3 0.1 0.4 0.2 0.2 0.1 0.2 0.3 0 0.3-0.2 0.5-0.2 0.2-0.4 0.2-1 0-2.5-0.2-1.5-0.1-2.8-0.1-2 0-3 0.2-1 0.1-1.6 0.1-0.3 0-0.5-0.2-0.2-0.1-0.2-0.4zm39.7-0.6q-2.3-4.6-4.6-9.1-2.3-4.6-4.6-9.1-0.5-1.2-1.1-1.9-0.6-0.7-1.7-1.2-0.2-0.1-0.6-0.2-0.3 0-0.5-0.1-0.3-0.1-0.4-0.2-0.2-0.1-0.2-0.3 0-0.6 1.1-0.6 0.6 0 1.3 0.1 0.6 0 1.3 0.1 0.8 0 1.6 0.1 0.9 0 1.9 0 1.9 0 2.8-0.1 0.9-0.1 1.5-0.1 0.3 0 0.5 0.2 0.1 0.1 0.1 0.3 0 0.5-0.5 0.6-0.5 0-1 0.1-0.5 0.2-0.8 0.5-0.3 0.4-0.3 0.9 0 0.6 0.3 1.7 0.4 1 1 2.4 0.6 1.3 1.3 2.9 0.8 1.5 1.6 3.1 0.7 1.5 1.4 2.8 0.7 1.4 1.2 2.4 0.4 0.8 0.6 0.8 0.2 0 0.4-0.4 0.3-0.3 0.4-0.5 0.6-1 1.3-2.3 0.7-1.3 1.5-2.8 0.7-1.4 1.4-2.9 0.8-1.4 1.3-2.7 0.6-1.3 0.9-2.2 0.3-1 0.3-1.5 0-0.6-0.6-1.2-0.6-0.6-1.4-0.9-0.9-0.2-1.6-0.3-0.8-0.1-0.8-0.5 0-0.3 0.2-0.4 0.2-0.2 1-0.2 0.3 0 0.9 0.1 0.6 0 1.3 0.1 0.7 0 1.4 0.1 0.8 0 1.4 0 1.6 0 2.6-0.2 1-0.1 1.5-0.1 0.4 0 0.5 0.1 0.2 0.2 0.2 0.4 0 0.2-0.1 0.3-0.1 0.1-0.2 0.2-0.2 0-0.5 0.1-0.2 0-0.6 0.1-0.6 0.3-1 0.6-0.4 0.4-0.8 0.8-0.3 0.4-0.5 0.9-0.3 0.4-0.6 1-0.6 1.1-1.3 2.6-0.8 1.5-1.7 3.1-0.9 1.7-1.9 3.5-0.9 1.7-1.8 3.3-0.9 1.7-1.8 3.1-0.8 1.5-1.4 2.6-0.5 0.7-0.8 1.3-0.4 0.5-0.8 0.5-0.5 0-0.8-0.5-0.3-0.5-0.7-1.3zm26.3-9.2q2 0.2 3.9 0.2 1.9 0 3.9 0 0.4 0 0.5-0.1 0.2-0.3 0.2-0.4 0-0.4-0.3-1-0.3-0.5-0.5-0.9-0.7-1.2-1.5-2.6-0.9-1.3-1.8-2.7-0.2-0.4-0.5-0.4-0.2 0-0.4 0.4-0.4 0.6-0.9 1.3-0.4 0.8-0.9 1.7-0.5 0.8-1 1.7-0.5 0.8-0.9 1.6-0.1 0.2-0.2 0.4-0.1 0.2-0.1 0.3 0 0.1 0.1 0.3 0.2 0.1 0.4 0.2zm-10.7 9.8q0-0.3 0.1-0.4 0.1-0.1 0.3-0.2 0.2 0 0.4 0 0.3-0.1 0.6-0.2 0.5-0.1 1-0.6 0.6-0.4 1.1-1 0.5-0.6 0.9-1.2 0.4-0.7 0.7-1.2 2.6-4.8 5.3-9.4 2.7-4.7 5.7-9.5 0.2-0.2 0.5-0.2 0.4 0 0.6 0.2 0.7 1.3 1.6 2.9 1 1.6 2 3.3 1 1.8 2.1 3.6 1.1 1.9 2.1 3.6 1.1 1.8 1.9 3.4 0.9 1.5 1.6 2.7 0.7 1.3 1.4 2.2 0.7 0.8 2.1 1.3 0.3 0.1 0.6 0.1 0.3 0 0.5 0.1 0.3 0.1 0.4 0.2 0.2 0.2 0.2 0.4 0 0.3-0.3 0.4-0.3 0.1-0.8 0.1-0.4 0-1.1-0.1-0.7 0-1.5-0.1-0.8-0.1-1.7-0.1-0.9-0.1-1.7-0.1-2 0-3.3 0.2-1.3 0.2-2.5 0.2-0.7 0-0.7-0.5 0-0.3 0.5-0.4 0.5-0.2 1-0.5 1.5-0.6 1.5-1.8 0-0.3-0.2-0.8-0.2-0.5-0.5-1.2-0.3-0.6-0.6-1.2-0.4-0.6-0.7-1.2-0.4-0.5-0.7-0.7-0.2-0.2-0.9-0.2-0.3-0.1-1-0.1-0.8 0-1.6-0.1-0.9 0-1.9 0-1 0-1.9 0-1.2 0-2 0-0.8 0-1.3 0.2-0.4 0.1-0.7 0.2-0.2 0.2-0.4 0.4-0.4 0.5-0.8 1.1-0.4 0.6-0.6 1.2-0.3 0.5-0.5 1-0.1 0.5-0.1 0.9 0 0.7 0.4 1.3 0.5 0.5 1.2 0.7 0.5 0.2 1.1 0.3 0.6 0.1 1 0.2 0.5 0 0.8 0.2 0.3 0.1 0.3 0.4 0 0.3-0.2 0.4-0.2 0.2-0.9 0.2-1 0-2.4-0.2-1.4-0.2-3-0.2-1.1 0-2.2 0.1-1 0.1-1.7 0.1-1.1 0-1.1-0.4zm63.3-10.8q0-2.3-0.9-4.3-1-2.1-2.9-3.7-1.7-1.5-4.2-2.5-2.5-0.9-5.6-0.9-2 0-2.7 0.7-0.7 0.6-0.8 2-0.1 0.6-0.1 1.6 0 1 0 2.2 0 1.1 0 2.3 0 1.1 0 1.8v6q0 1.3 0.2 2.2 0.2 0.9 0.8 1.5 0.6 0.6 1.7 0.8 1.1 0.3 2.9 0.3 2.8 0 4.9-0.8 2.1-0.8 3.6-2.1 1.5-1.3 2.3-3.1 0.8-1.9 0.8-4zm-26.1 10.8q0-0.5 0.4-0.6 0.4-0.1 1.2-0.3 0.9-0.2 1.3-0.8 0.5-0.8 0.6-1.9 0.1-0.7 0.1-2 0.1-1.4 0.2-3.1 0.1-1.8 0.1-3.8 0-2 0-4 0-1.5-0.1-2.3-0.1-1-0.3-1.5-0.3-0.5-0.8-0.8-0.5-0.3-1.3-0.6-0.4-0.1-0.9-0.1-0.5-0.1-0.9-0.2-0.5-0.1-0.8-0.2-0.3-0.2-0.3-0.5 0-0.5 0.8-0.5 1.2 0 2.3 0.1 1.2 0.1 2.7 0.1 1.2 0 2.5-0.1 1.3 0 2.8-0.1 1.4 0 2.8-0.1 1.5 0 2.8 0 3.7 0 6.7 0.8 3 0.8 5.2 2.3 2.1 1.5 3.3 3.5 1.1 2.1 1.1 4.6 0 2.6-1.2 4.9-1.3 2.3-3.6 4-2.2 1.7-5.2 2.7-3 1-6.4 1-1.2 0-2.4 0-1.1-0.1-2.3-0.1-1.1-0.1-2.4-0.1-1.2-0.1-2.6-0.1-0.5 0-1.1 0-0.6 0.1-1.3 0.1-0.6 0-1.2 0.1-0.7 0-1.1 0-0.3 0-0.5-0.1-0.2-0.1-0.2-0.3zm42-9.8q2.1 0.2 3.9 0.2 1.9 0 3.9 0 0.4 0 0.5-0.1 0.2-0.3 0.2-0.4 0-0.4-0.3-1-0.3-0.5-0.5-0.9-0.6-1.2-1.5-2.6-0.8-1.3-1.8-2.7-0.2-0.4-0.5-0.4-0.2 0-0.4 0.4-0.4 0.6-0.9 1.3-0.4 0.8-0.9 1.7-0.5 0.8-1 1.7-0.5 0.8-0.9 1.6-0.1 0.2-0.2 0.4-0.1 0.2-0.1 0.3 0 0.1 0.1 0.3 0.2 0.1 0.4 0.2zm-10.7 9.8q0-0.3 0.1-0.4 0.1-0.1 0.3-0.2 0.2 0 0.4 0 0.3-0.1 0.6-0.2 0.5-0.1 1-0.6 0.6-0.4 1.1-1 0.5-0.6 0.9-1.2 0.4-0.7 0.7-1.2 2.6-4.8 5.3-9.4 2.7-4.7 5.7-9.5 0.2-0.2 0.5-0.2 0.4 0 0.6 0.2 0.7 1.3 1.6 2.9 1 1.6 2 3.3 1 1.8 2.1 3.6 1.1 1.9 2.1 3.6 1.1 1.8 2 3.4 0.8 1.5 1.5 2.7 0.7 1.3 1.4 2.2 0.7 0.8 2.1 1.3 0.3 0.1 0.6 0.1 0.3 0 0.5 0.1 0.3 0.1 0.4 0.2 0.2 0.2 0.2 0.4 0 0.3-0.3 0.4-0.3 0.1-0.8 0.1-0.4 0-1.1-0.1-0.7 0-1.5-0.1-0.8-0.1-1.7-0.1-0.9-0.1-1.7-0.1-2 0-3.3 0.2-1.3 0.2-2.5 0.2-0.7 0-0.7-0.5 0-0.3 0.5-0.4 0.5-0.2 1-0.5 1.5-0.6 1.5-1.8 0-0.3-0.2-0.8-0.1-0.5-0.5-1.2-0.3-0.6-0.6-1.2-0.4-0.6-0.7-1.2-0.4-0.5-0.7-0.7-0.2-0.2-0.9-0.2-0.3-0.1-1-0.1-0.7 0-1.6-0.1-0.9 0-1.9 0-1 0-1.9 0-1.2 0-2 0-0.8 0-1.3 0.2-0.4 0.1-0.7 0.2-0.2 0.2-0.4 0.4-0.4 0.5-0.8 1.1-0.4 0.6-0.6 1.2-0.3 0.5-0.5 1-0.1 0.5-0.1 0.9 0 0.7 0.4 1.3 0.5 0.5 1.2 0.7 0.5 0.2 1.1 0.3 0.6 0.1 1 0.2 0.5 0 0.8 0.2 0.3 0.1 0.3 0.4 0 0.3-0.2 0.4-0.2 0.2-0.9 0.2-1 0-2.4-0.2-1.4-0.2-3-0.2-1 0-2.2 0.1-1 0.1-1.7 0.1-1.1 0-1.1-0.4z"/>
	<path id="Shape 1" fill-rule="evenodd" class="s0" d="m227 43l33 57-33 57h-68l-33-57 33-57zm-62 9l-28 48 10 18 24-41v-25zm40 24l29 49 15-25-27-48h-27l-43 75 12 21zm0 18l-13 24h27zm-19 33l-12 21h48l7-13-4-8z"/>
	<path id="Shape 1 copy" fill-rule="evenodd" class="s1" d="m221 38l33 57-33 57h-68l-33-57 33-57zm-62 9l-28 48 10 18 24-41v-25zm40 24l29 49 15-25-27-48h-27l-43 75 12 21zm0 18l-13 24h27zm-19 33l-12 21h48l7-13-4-8z"/>
	<g id="us-co-arvada">
	</g>
</svg>