<?xml version="1.0" encoding="utf-8"?>
<!-- Generator: Adobe Illustrator 26.0.3, SVG Export Plug-In . SVG Version: 6.00 Build 0)  -->
<svg version="1.1"
	 id="svg2" inkscape:output_extension="org.inkscape.output.svg.inkscape" sodipodi:docname="EscudosantiagoSvgchep.svg" sodipodi:version="0.32" xmlns:cc="http://creativecommons.org/ns#" xmlns:dc="http://purl.org/dc/elements/1.1/" xmlns:inkscape="http://www.inkscape.org/namespaces/inkscape" xmlns:rdf="http://www.w3.org/1999/02/22-rdf-syntax-ns#" xmlns:sodipodi="http://sodipodi.sourceforge.net/DTD/sodipodi-0.dtd" xmlns:svg="http://www.w3.org/2000/svg"
	 xmlns="http://www.w3.org/2000/svg" xmlns:xlink="http://www.w3.org/1999/xlink" x="0px" y="0px" viewBox="0 0 1537.8 960"
	 style="enable-background:new 0 0 1537.8 960;" xml:space="preserve">
<style type="text/css">
	.st0{fill:#014785;}
	.st1{fill:#FFFFFF;}
	.st2{fill:#AE0232;}
	.st3{fill:none;stroke:#FFFFFF;stroke-width:10;stroke-miterlimit:10;}
</style>
<rect class="st0" width="1537.8" height="960"/>
<rect x="499" y="173.1" class="st1" width="1038.8" height="613.9"/>
<circle class="st2" cx="492.3" cy="480" r="306.9"/>
<circle class="st3" cx="491.3" cy="481.1" r="287.5"/>
<path class="st1" d="M256.1,322.3c-5.8,9.9-11.6,19.8-17.4,29.7c63.2,8.3,136.4,6.2,209.8-22.7c5.8-2.3,11.5-4.7,17-7.2
	c-29.9-7.4-70.7-14.1-119.1-12.5C311.1,310.8,280.5,316.2,256.1,322.3z"/>
<path class="st1" d="M314.5,258.6c18.7,10.1,42.1,20.5,69.9,28.3c54.6,15.5,102.5,14.6,134.4,11.1c-24.6-16-56.2-33.4-94.9-47.6
	c-24.1-8.9-46.7-15-66.9-19.3C342.8,240.3,328.7,249.5,314.5,258.6z"/>
<path class="st1" d="M408.6,208.5c21.4,20.3,58.3,49.3,111.3,65.2c19.2,5.8,37.1,8.8,52.7,10.2c-31.7-29-63.5-58.1-95.2-87.1
	C454.5,200.7,431.5,204.6,408.6,208.5z"/>
<path class="st1" d="M426.2,358.6c-32.9,3.7-76.4,12.1-124.4,31.5c-37.8,15.2-68.4,33.2-91.8,49.3c-0.8,6.3-1.5,12.7-2.3,19
	c40.2-1.5,116.7-10.7,183.1-64.9C404.6,382.1,416.3,370.2,426.2,358.6z"/>
<path class="st1" d="M401.2,409.3c-35.9,14.4-87.9,41.1-136.1,90.4c-19.9,20.4-35.3,40.8-47.3,59.2c2,6,4,12.1,6,18.1
	c39.7-17.5,101.6-52.3,148.8-119.1C384.4,441.4,393.8,424.9,401.2,409.3z"/>
<path class="st1" d="M387.2,468.7c-30.4,28.4-65.9,68.3-96.4,121.7c-11.9,20.8-21.4,40.9-29.1,59.7c6.6,7.8,13.2,15.6,19.8,23.3
	c25.9-21.4,74.3-67.9,95.5-142C383.7,508.5,386.5,487.1,387.2,468.7z"/>
<path class="st1" d="M400.4,521c-17.5,28.8-38.4,71.2-49.9,125.6c-6,28.3-8.2,54-8.5,76c9.1,5,18.1,10,27.2,15
	c15.6-28.3,38.4-79.3,39.1-145.5C408.6,564.6,405,540.5,400.4,521z"/>
<path class="st1" d="M436.8,496.7c-5,18.7-10.5,49.1-6,86.2c3.7,30.5,12.8,54.6,20.4,70.7c9.3-24.1,19.3-59.4,19.3-102.4
	c0-18.8-1.9-35.7-4.5-50.3c16.4-6.3,25.1-24.4,20-40.8c-5.2-17-23.2-25-38.2-22.7c-19,3-33.8,22.9-29.5,39.7
	C421.5,489.5,434.1,495.5,436.8,496.7z"/>
<path class="st1" d="M466.8,664.1c19,8.8,38,17.6,57,26.5c10.9-17.7,21.9-35.4,32.8-53.1c-13.4-4-26.9-7.9-40.3-11.9
	c-9.7-11-19.4-22-29-33.1C480.4,616.4,473.6,640.3,466.8,664.1z"/>
<path class="st1" d="M382,744.1c0.9-0.6,34.3-72.3,34.3-72.3l199.8,65.8l-40.5,18.5l-71.2,13.8l-76.9-8.3L382,744.1z"/>
<path class="st1" d="M642,560.6c-46.3-2.9-54.8-5.9-54.8-7.9c0-2,8.4-5.3,55.2-9.8c0-10.3,0-20.7,0-31c10.5,0,20.9,0,31.4,0
	c1.5-11.9,2.9-38.3-11.7-65c-4.6-8.4-14.4-11.9-17-22.7c-3.3-13.6,9.1-20.6,9.6-33.4c0.4-9.4-5-23.4-33.6-41.6c-14,0-28.1,0-42.1,0
	c-5.8,23.6-18.2,59.5-47.2,93.2c-9.4,10.9-19.1,19.9-28.2,27.2c-6,13.2-12.1,26.3-18.1,39.5c0.1,13.9,2.2,50.7,28.7,81.3
	c31.6,36.5,87.2,51.9,102.8,36.1c7.6-7.7,2.8-19.6,15.3-47.4C635.9,570.7,639.6,564.3,642,560.6z"/>
<path class="st2" d="M618,424.7c1.9,1.5,9.3,7.8,7.9,10.4c-1.1,2.2-7.6,0.9-10,0.4c-6.9-1.4-20.4-6.1-37.8-26.5
	c18.9,0,37.9,0,56.8,0c-3.5,6.4-7.4,9-10.5,10.1c-3.5,1.3-7.8,1.2-8.1,2.9C616.1,423,617.1,424,618,424.7z"/>
<path class="st1" d="M544.7,366.1c-32.8,20.4-50,43.6-59.5,63.7c-0.4,0.8-0.8,1.6-1.1,2.5c5.2,5.2,10.3,10.5,15.5,15.7
	c12.6-10.9,32.2-31.3,41.2-62.2C542.7,378.9,543.9,372.3,544.7,366.1z"/>
<path class="st1" d="M462.7,421.5c12.7-19.6,42.7-59.4,96.1-80.8c18.8-7.5,36.4-11.1,51-12.8c-7.4-10-14.7-20-22.1-30
	c-19.8,2.7-69,12.3-112.5,52.7c-27.6,25.6-42,53.4-49.3,70.9C438.2,421.5,450.5,421.5,462.7,421.5z"/>
<g>
	<path d="M953.8,433.4h-28.3l-3.4,8.5c-1.1,2.8-1.7,5.1-1.7,7c0,2.4,0.9,4.2,2.7,5.4c1.1,0.7,3.7,1.2,7.8,1.5v2.4h-26.6v-2.4
		c2.9-0.5,5.2-1.8,7.1-3.9c1.8-2.1,4.1-6.5,6.8-13.1l28.6-69.3h1.1l28.9,71.2c2.8,6.7,5,11,6.8,12.7c1.3,1.3,3.2,2.1,5.7,2.3v2.4
		h-38.7v-2.4h1.6c3.1,0,5.3-0.5,6.5-1.4c0.9-0.7,1.3-1.7,1.3-2.9c0-0.8-0.1-1.6-0.4-2.4c-0.1-0.4-0.7-2-1.8-4.8L953.8,433.4z
		 M951.8,428.6l-11.9-29.9l-12.3,29.9H951.8z"/>
	<path d="M1017.8,398.2v13.6c3.7-6.2,6.9-10.3,9.6-12.3c2.8-2,5.4-3,8-3c2.2,0,4,0.7,5.3,2.2c1.3,1.5,2,3.6,2,6.2
		c0,2.9-0.6,5.1-1.9,6.7c-1.3,1.6-2.8,2.4-4.6,2.4c-2.1,0-3.9-0.7-5.4-2.2s-2.4-2.3-2.7-2.4c-0.4-0.3-0.8-0.4-1.4-0.4
		c-1.1,0-2.2,0.5-3.2,1.4c-1.6,1.5-2.8,3.5-3.7,6.2c-1.3,4.1-1.9,8.7-1.9,13.7V444l0.1,3.6c0,2.4,0.1,4,0.4,4.7
		c0.5,1.2,1.2,2,2.1,2.5c0.9,0.5,2.5,0.9,4.7,1v2.3h-29.8v-2.3c2.4-0.2,4-0.9,4.9-2.1c0.8-1.2,1.3-4.4,1.3-9.6v-33.1
		c0-3.4-0.2-5.6-0.5-6.5c-0.4-1.2-1-2.1-1.7-2.6c-0.7-0.6-2.1-0.9-4-1.2v-2.4H1017.8z"/>
	<path d="M1079,449.3c-6.7,6.4-12.8,9.7-18.1,9.7c-3.1,0-5.8-1.1-7.8-3.4s-3.1-5-3.1-8.4c0-4.6,1.8-8.7,5.4-12.3
		c3.6-3.6,11.5-8.5,23.7-14.6v-6c0-4.5-0.2-7.4-0.7-8.5c-0.5-1.2-1.3-2.2-2.6-3.1s-2.7-1.3-4.2-1.3c-2.6,0-4.7,0.6-6.3,1.9
		c-1,0.8-1.5,1.7-1.5,2.7c0,0.9,0.5,2,1.7,3.3c1.5,1.8,2.2,3.6,2.2,5.3c0,2.1-0.7,3.9-2.2,5.3c-1.4,1.5-3.3,2.2-5.6,2.2
		c-2.5,0-4.6-0.8-6.2-2.4c-1.7-1.6-2.5-3.5-2.5-5.7c0-3.1,1.1-6,3.4-8.8s5.4-4.9,9.4-6.4c4-1.5,8.2-2.2,12.5-2.2
		c5.2,0,9.4,1.2,12.4,3.6c3,2.4,5,5,5.9,7.8c0.5,1.8,0.8,5.9,0.8,12.4v23.2c0,2.7,0.1,4.5,0.3,5.2c0.2,0.7,0.5,1.2,0.9,1.6
		c0.4,0.3,0.8,0.5,1.4,0.5c1,0,2.1-0.8,3.1-2.4l1.8,1.5c-2,3.2-4,5.5-6.1,6.9s-4.5,2.1-7.2,2.1c-3.1,0-5.6-0.8-7.4-2.4
		S1079.3,452.5,1079,449.3z M1079,444.6v-20c-4.8,3-8.3,6.3-10.6,9.7c-1.5,2.3-2.3,4.6-2.3,7c0,2,0.6,3.7,1.9,5.2
		c1,1.2,2.4,1.7,4.1,1.7C1074.1,448.2,1076.4,447,1079,444.6z"/>
	<path d="M1130.3,452v22.3c0,3.1,0.2,5.2,0.7,6.3c0.5,1.1,1.2,1.9,2.1,2.4c0.9,0.5,2.8,0.8,5.5,0.8v2.4h-31.5v-2.4
		c2.4-0.1,4.2-0.8,5.4-2.2c0.8-1,1.2-3.5,1.2-7.6v-63.2c0-4.2-0.5-6.9-1.4-8.1c-0.9-1.2-2.7-1.8-5.3-2v-2.4h23.1v7.9
		c1.9-3.1,3.9-5.3,5.9-6.7c2.9-2,6-3,9.4-3c4.1,0,7.7,1.4,11.1,4.2c3.3,2.8,5.9,6.6,7.6,11.5c1.7,4.9,2.6,10.1,2.6,15.8
		c0,6.1-0.9,11.6-2.7,16.6s-4.4,8.8-7.8,11.5c-3.4,2.6-7.2,3.9-11.4,3.9c-3,0-5.9-0.7-8.5-2.2C1134.5,456.6,1132.5,454.7,1130.3,452
		z M1130.3,445.5c3.4,5.2,7,7.8,10.9,7.8c2.1,0,3.9-1.2,5.3-3.6c2-3.6,3.1-10.4,3.1-20.5c0-10.3-1.1-17.4-3.4-21.2
		c-1.5-2.5-3.5-3.8-6-3.8c-4,0-7.2,3.1-9.8,9.3V445.5z"/>
	<path d="M1206.6,449.3c-6.7,6.4-12.8,9.7-18.1,9.7c-3.1,0-5.8-1.1-7.8-3.4s-3.1-5-3.1-8.4c0-4.6,1.8-8.7,5.4-12.3
		c3.6-3.6,11.5-8.5,23.7-14.6v-6c0-4.5-0.2-7.4-0.7-8.5c-0.5-1.2-1.3-2.2-2.6-3.1s-2.7-1.3-4.2-1.3c-2.6,0-4.7,0.6-6.3,1.9
		c-1,0.8-1.5,1.7-1.5,2.7c0,0.9,0.5,2,1.7,3.3c1.5,1.8,2.2,3.6,2.2,5.3c0,2.1-0.7,3.9-2.2,5.3c-1.4,1.5-3.3,2.2-5.6,2.2
		c-2.5,0-4.6-0.8-6.2-2.4c-1.7-1.6-2.5-3.5-2.5-5.7c0-3.1,1.1-6,3.4-8.8s5.4-4.9,9.4-6.4c4-1.5,8.2-2.2,12.5-2.2
		c5.2,0,9.4,1.2,12.4,3.6c3,2.4,5,5,5.9,7.8c0.5,1.8,0.8,5.9,0.8,12.4v23.2c0,2.7,0.1,4.5,0.3,5.2c0.2,0.7,0.5,1.2,0.9,1.6
		c0.4,0.3,0.8,0.5,1.4,0.5c1,0,2.1-0.8,3.1-2.4l1.8,1.5c-2,3.2-4,5.5-6.1,6.9s-4.5,2.1-7.2,2.1c-3.1,0-5.6-0.8-7.4-2.4
		S1207,452.5,1206.6,449.3z M1206.6,444.6v-20c-4.8,3-8.3,6.3-10.6,9.7c-1.5,2.3-2.3,4.6-2.3,7c0,2,0.6,3.7,1.9,5.2
		c1,1.2,2.4,1.7,4.1,1.7C1201.7,448.2,1204,447,1206.6,444.6z"/>
	<path d="M1259.1,371.3v34.6c3-3.5,5.8-5.9,8.3-7.3c2.5-1.4,5.1-2.1,7.8-2.1c3.5,0,6.4,1.1,8.9,3.2c2.5,2.1,4.1,4.6,4.9,7.5
		c0.8,2.9,1.2,7.7,1.2,14.6v23.4c0,4.6,0.4,7.4,1.2,8.5c0.8,1.1,2.4,1.8,4.8,2.1v2.3h-28v-2.3c2-0.3,3.4-1.2,4.4-2.6
		c0.7-1.1,1.1-3.8,1.1-8.1v-26.7c0-5-0.2-8.1-0.5-9.3c-0.4-1.3-1-2.2-1.8-2.9c-0.8-0.7-1.8-1.1-2.9-1.1c-1.6,0-3.1,0.6-4.6,1.8
		c-1.5,1.2-3.1,3.2-4.8,6.2v32.1c0,4.3,0.3,6.9,0.9,8c0.7,1.5,2.3,2.3,4.6,2.7v2.3h-28v-2.3c2.3-0.3,4-1.1,5-2.4
		c0.7-0.9,1-3.7,1-8.3v-60.8c0-4.5-0.4-7.3-1.2-8.5c-0.8-1.1-2.4-1.8-4.8-2.2v-2.4H1259.1z"/>
	<path d="M1329.8,396.4c4.8,0,9.3,1.3,13.4,4c4.1,2.7,7.3,6.5,9.4,11.5c2.1,5,3.2,10.4,3.2,16.3c0,8.5-2,15.6-6,21.3
		c-4.8,6.9-11.4,10.4-19.9,10.4c-8.3,0-14.7-3.2-19.2-9.5c-4.5-6.3-6.7-13.6-6.7-22c0-8.6,2.3-16.1,6.9-22.4
		C1315.5,399.6,1321.8,396.4,1329.8,396.4z M1330,401c-2,0-3.7,0.8-5.2,2.5c-1.4,1.6-2.4,4.9-2.8,9.7s-0.7,11.6-0.7,20.2
		c0,4.6,0.3,8.8,0.8,12.8c0.4,3,1.4,5.3,2.8,6.9c1.4,1.6,3,2.4,4.8,2.4c1.8,0,3.2-0.5,4.4-1.6c1.5-1.5,2.6-3.5,3.1-6.1
		c0.8-4.1,1.2-12.2,1.2-24.6c0-7.3-0.4-12.2-1.1-15c-0.7-2.7-1.8-4.7-3.3-5.9C1333,401.4,1331.7,401,1330,401z"/>
	<path d="M1410.9,426h-30.3c0.4,7.9,2.3,14.2,5.8,18.8c2.7,3.5,6,5.3,9.8,5.3c2.4,0,4.5-0.7,6.4-2.1c1.9-1.4,4-4,6.2-7.7l2,1.4
		c-3,6.6-6.3,11.3-9.9,14.1s-7.8,4.1-12.6,4.1c-8.2,0-14.4-3.4-18.6-10.2c-3.4-5.5-5.1-12.3-5.1-20.5c0-10,2.5-17.9,7.5-23.9
		c5-5.9,10.8-8.9,17.5-8.9c5.6,0,10.4,2.5,14.5,7.5C1408.4,408.9,1410.6,416.2,1410.9,426z M1396.4,421.7c0-6.9-0.3-11.6-1-14.2
		c-0.7-2.6-1.8-4.5-3.2-5.8c-0.8-0.8-1.9-1.2-3.3-1.2c-2,0-3.7,1.1-5,3.3c-2.3,3.8-3.5,9-3.5,15.6v2.2H1396.4z"/>
</g>
<g>
	<path d="M970,487.2v30.1h-2.3c-1.7-7.9-5-13.9-9.7-18.1c-4.7-4.2-10.1-6.3-16-6.3c-5,0-9.6,1.6-13.7,4.7c-4.2,3.1-7.2,7.2-9.1,12.2
		c-2.5,6.4-3.7,13.6-3.7,21.5c0,7.8,0.9,14.8,2.7,21.2c1.8,6.4,4.6,11.2,8.5,14.5c3.9,3.3,8.9,4.9,15,4.9c5,0,9.6-1.2,13.8-3.6
		s8.6-6.5,13.2-12.4v7.5c-4.5,5.1-9.2,8.8-14,11s-10.5,3.4-17,3.4c-8.5,0-16.1-1.9-22.7-5.6c-6.6-3.7-11.7-9-15.3-16
		c-3.6-7-5.4-14.4-5.4-22.2c0-8.3,2-16.1,6-23.6c4-7.4,9.4-13.2,16.2-17.3c6.8-4.1,14-6.1,21.6-6.1c5.6,0,11.6,1.3,17.8,4
		c3.6,1.5,5.9,2.3,6.9,2.3c1.3,0,2.3-0.5,3.3-1.5c0.9-1,1.5-2.6,1.8-4.8H970z"/>
	<path d="M1006.7,514.4c4.8,0,9.3,1.3,13.4,4c4.1,2.7,7.3,6.5,9.4,11.5c2.1,5,3.2,10.4,3.2,16.3c0,8.5-2,15.6-6,21.3
		c-4.8,6.9-11.4,10.4-19.9,10.4c-8.3,0-14.7-3.2-19.2-9.5c-4.5-6.3-6.7-13.6-6.7-22c0-8.6,2.3-16.1,6.9-22.4
		C992.5,517.6,998.8,514.4,1006.7,514.4z M1007,518.9c-2,0-3.7,0.8-5.2,2.5c-1.4,1.6-2.4,4.9-2.8,9.7s-0.7,11.6-0.7,20.2
		c0,4.6,0.3,8.8,0.8,12.8c0.4,3,1.4,5.3,2.8,6.9c1.4,1.6,3,2.4,4.8,2.4c1.8,0,3.2-0.5,4.4-1.6c1.5-1.5,2.6-3.5,3.1-6.1
		c0.8-4.1,1.2-12.2,1.2-24.6c0-7.3-0.4-12.2-1.1-15c-0.7-2.7-1.8-4.7-3.3-5.9C1010,519.4,1008.6,518.9,1007,518.9z"/>
	<path d="M1094.4,516.2V563c0,4.6,0.4,7.4,1.2,8.5c0.8,1.1,2.4,1.8,4.8,2.1v2.3h-22.5v-8c-2.6,3.4-5.3,5.9-7.9,7.5s-5.6,2.3-8.9,2.3
		c-3.1,0-5.9-1-8.3-3.1c-2.4-2.1-4-4.5-4.9-7.3c-0.8-2.8-1.2-7.6-1.2-14.5v-23.8c0-4.5-0.4-7.3-1.2-8.5c-0.8-1.1-2.4-1.8-4.8-2.2
		v-2.4h22.5v40.9c0,4.3,0.2,7,0.6,8.3c0.4,1.2,1,2.2,1.8,2.8c0.8,0.6,1.7,1,2.8,1c1.4,0,2.7-0.4,3.8-1.2c1.6-1.1,3.5-3.3,5.7-6.7
		v-32c0-4.5-0.4-7.3-1.2-8.5c-0.8-1.1-2.4-1.8-4.8-2.2v-2.4H1094.4z"/>
	<path d="M1130.9,516.2v7.7c2.8-3.3,5.5-5.8,8.1-7.3c2.6-1.5,5.4-2.3,8.4-2.3c3.6,0,6.5,1.1,8.9,3.2s3.9,4.8,4.7,8
		c0.6,2.4,0.9,7.1,0.9,14V563c0,4.6,0.4,7.5,1.2,8.6c0.8,1.1,2.4,1.8,4.8,2.1v2.3H1140v-2.3c2.1-0.3,3.6-1.2,4.5-2.8
		c0.6-1.1,0.9-3.7,0.9-7.9v-26.6c0-4.9-0.2-8-0.5-9.3c-0.4-1.3-1-2.3-1.8-3c-0.8-0.7-1.8-1.1-2.8-1.1c-3.4,0-6.5,2.6-9.4,7.9V563
		c0,4.5,0.4,7.3,1.2,8.5c0.8,1.2,2.2,1.9,4.3,2.2v2.3h-27.9v-2.3c2.3-0.3,4-1.1,5-2.4c0.7-0.9,1-3.7,1-8.3v-33.8
		c0-4.5-0.4-7.3-1.2-8.5c-0.8-1.1-2.4-1.8-4.8-2.2v-2.4H1130.9z"/>
	<path d="M1197.5,494.3v21.9h13.1v6.3h-13.1v36.9c0,3.5,0.1,5.7,0.4,6.7c0.3,1,0.8,1.8,1.6,2.4c0.7,0.6,1.4,0.9,2.1,0.9
		c2.6,0,5-2.1,7.3-6.3l1.8,1.4c-3.2,8.2-8.4,12.3-15.5,12.3c-3.5,0-6.5-1.1-8.9-3.2c-2.4-2.1-4-4.5-4.6-7.1
		c-0.4-1.5-0.6-5.4-0.6-11.8v-32.3h-7.2v-2.2c5-3.8,9.2-7.8,12.7-12c3.5-4.2,6.5-8.9,9.1-14H1197.5z"/>
	<path d="M1241.1,578.5l-17.8-44.4c-2.7-6.7-4.7-10.8-5.9-12.4c-1.3-1.5-2.8-2.6-4.6-3.2v-2.4h29.3v2.4c-1.9,0.1-3.3,0.5-4.1,1.2
		c-0.8,0.7-1.2,1.6-1.2,2.6c0,1.6,1,4.8,3,9.6l9.4,23.4l6.4-18.1c2.3-6.4,3.5-10.9,3.5-13.4c0-1.6-0.5-2.8-1.4-3.8
		c-1-0.9-2.7-1.5-5.1-1.5v-2.4h18.5v2.4c-1.8,0.2-3.3,1-4.4,2.3c-1.1,1.3-3,5.7-5.7,13.3l-15.8,44.4c-4,11.1-6.9,17.9-8.9,20.5
		c-2.7,3.6-6.1,5.4-10.2,5.4c-3.3,0-5.9-1-7.9-3c-2-2-3-4.5-3-7.3c0-2.5,0.7-4.5,2.1-6.1c1.4-1.6,3.1-2.4,5.2-2.4c2,0,3.5,0.7,4.8,2
		s1.8,3.5,1.9,6.3c0,1.6,0.2,2.7,0.5,3.1c0.3,0.5,0.8,0.7,1.4,0.7c0.9,0,1.9-0.6,3-1.9c1.6-1.8,3.4-5.9,5.5-12.3L1241.1,578.5z"/>
</g>
</svg>
