<?xml version="1.0" encoding="UTF-8" standalone="no"?>
<!-- Created with Inkscape (http://www.inkscape.org/) -->

<svg
   xmlns:dc="http://purl.org/dc/elements/1.1/"
   xmlns:cc="http://creativecommons.org/ns#"
   xmlns:rdf="http://www.w3.org/1999/02/22-rdf-syntax-ns#"
   xmlns:svg="http://www.w3.org/2000/svg"
   xmlns="http://www.w3.org/2000/svg"
   xmlns:sodipodi="http://sodipodi.sourceforge.net/DTD/sodipodi-0.dtd"
   xmlns:inkscape="http://www.inkscape.org/namespaces/inkscape"
   width="95.25mm"
   height="57.150002mm"
   viewBox="0 0 95.25 57.150002"
   version="1.1"
   id="svg8"
   enable-background="new"
   inkscape:version="0.92.3 (2405546, 2018-03-11)"
   sodipodi:docname="Centennial CO.svg">
  <defs
     id="defs2" />
  <sodipodi:namedview
     id="base"
     pagecolor="#ffffff"
     bordercolor="#666666"
     borderopacity="1.0"
     inkscape:pageopacity="0.0"
     inkscape:pageshadow="2"
     inkscape:zoom="2"
     inkscape:cx="234.21486"
     inkscape:cy="139.76565"
     inkscape:document-units="mm"
     inkscape:current-layer="layer5"
     showgrid="false"
     inkscape:window-width="1920"
     inkscape:window-height="1017"
     inkscape:window-x="-8"
     inkscape:window-y="-8"
     inkscape:window-maximized="1" />
  <metadata
     id="metadata5">
    <rdf:RDF>
      <cc:Work
         rdf:about="">
        <dc:format>image/svg+xml</dc:format>
        <dc:type
           rdf:resource="http://purl.org/dc/dcmitype/StillImage" />
        <dc:title></dc:title>
      </cc:Work>
    </rdf:RDF>
  </metadata>
  <g
     inkscape:groupmode="layer"
     id="layer4"
     inkscape:label="Colors"
     style="display:inline;opacity:1" />
  <g
     inkscape:groupmode="layer"
     id="layer5"
     inkscape:label="Logo"
     style="display:inline;opacity:1">
    <g
       id="g952">
      <g
         id="g866"
         style="display:inline;opacity:1">
        <rect
           transform="translate(-44.223212,-106.27322)"
           style="display:inline;opacity:1;fill:#ffffff;fill-opacity:1;fill-rule:nonzero;stroke:#0c3161;stroke-width:0;stroke-miterlimit:4;stroke-dasharray:none;stroke-opacity:1"
           id="rect839"
           width="95.249977"
           height="57.149925"
           x="44.223236"
           y="106.27329" />
        <rect
           style="opacity:1;fill:#3656c7;fill-opacity:1;fill-rule:nonzero;stroke:#0c3161;stroke-width:0;stroke-miterlimit:4;stroke-dasharray:none;stroke-opacity:1"
           id="rect842"
           width="95.25"
           height="20.223528"
           x="1.9580078e-007"
           y="-3.7524412e-006" />
        <rect
           style="opacity:1;fill:#3656c7;fill-opacity:1;fill-rule:nonzero;stroke:#0c3161;stroke-width:0;stroke-miterlimit:4;stroke-dasharray:none;stroke-opacity:1"
           id="rect842-4"
           width="95.25"
           height="20.223528"
           x="1.9580078e-007"
           y="36.926472" />
        <ellipse
           style="opacity:1;fill:#ffffff;fill-opacity:1;fill-rule:nonzero;stroke:#0c3161;stroke-width:0;stroke-miterlimit:4;stroke-dasharray:none;stroke-opacity:1"
           id="path859"
           cx="47.625"
           cy="28.376566"
           rx="21.213913"
           ry="17.62314" />
      </g>
      <g
         id="g933">
        <path
           style="fill:#3656c7;fill-opacity:1;stroke:#000000;stroke-width:0;stroke-linecap:butt;stroke-linejoin:miter;stroke-miterlimit:4;stroke-dasharray:none;stroke-opacity:1"
           d="m 58.707421,15.121867 -1.094134,3.69166 c -12.789365,-8.20319 -23.454945,0.06597 -23.770282,9.07046 2.435545,17.754032 20.923194,13.228314 24.655613,8.519216 l 1.240298,1.231945 C 56.688506,42.776156 31.213695,49.35204 29.625972,28.537096 30.240698,13.498329 46.443615,11.056031 58.707421,15.121867 Z"
           id="path869"
           inkscape:connector-curvature="0"
           sodipodi:nodetypes="ccccccc" />
        <path
           style="fill:#3656c7;fill-opacity:1;stroke:#000000;stroke-width:0;stroke-linecap:butt;stroke-linejoin:miter;stroke-miterlimit:4;stroke-dasharray:none;stroke-opacity:1"
           d="m 53.979725,38.593731 c 3.580546,-1.365936 5.781019,-4.353194 6.496465,-7.252417 -2.76986,-0.04612 -6.013205,-0.459187 -6.378348,1.358351 -0.29864,1.252572 2.575119,1.44431 3.248233,2.917504 -0.675476,1.061907 -1.964225,1.940835 -3.36635,2.976562 z"
           id="path871"
           inkscape:connector-curvature="0"
           sodipodi:nodetypes="ccccc" />
        <path
           style="fill:#3656c7;fill-opacity:1;stroke:#000000;stroke-width:0;stroke-linecap:butt;stroke-linejoin:miter;stroke-miterlimit:4;stroke-dasharray:none;stroke-opacity:1"
           d="m 39.285899,36.810156 c 2.945322,-2.091942 8.098747,-1.369456 10.914062,-2.49228 -0.44468,-1.300763 -2.003761,-2.192203 -1.836726,-2.49302 3.063297,-2.167058 8.691984,-1.093468 12.176739,-1.331627 l 0.08268,-0.558105 c -4.475938,-0.02704 -6.813578,-3.016433 -9.500677,-3.420894 -1.905264,-0.0058 -2.652691,1.6901 -4.723987,1.76565 -2.345791,-0.626513 -3.535272,-3.2501 -5.133245,-3.133735 -2.218609,0.411497 -4.130053,1.437324 -6.15054,2.245064 -0.303079,4.023289 1.628208,6.880822 4.171694,9.418947 z"
           id="path873"
           inkscape:connector-curvature="0"
           sodipodi:nodetypes="cccccccccc" />
        <path
           style="fill:#3656c7;fill-opacity:1;stroke:#000000;stroke-width:0;stroke-linecap:butt;stroke-linejoin:miter;stroke-miterlimit:4;stroke-dasharray:none;stroke-opacity:1"
           d="m 35.312985,26.373914 c 2.14431,-0.636967 3.083561,-2.073051 6.828737,-1.683798 4.171196,3.402325 4.256268,3.589764 7.810952,1.520095 2.388168,-0.995325 6.47672,3.028621 10.535431,2.876489 h 0.283379 C 60.089914,21.789556 56.450488,17.897407 48.402213,16.255339 38.745559,17.173837 36.121512,22.120001 35.312985,26.373914 Z"
           id="path875"
           inkscape:connector-curvature="0"
           sodipodi:nodetypes="ccccccc" />
        <path
           style="fill:#fadf06;fill-opacity:1;stroke:#000000;stroke-width:0;stroke-linecap:butt;stroke-linejoin:miter;stroke-miterlimit:4;stroke-dasharray:none;stroke-opacity:1"
           d="m 40.089592,24.684269 -2.742017,-2.642627 4.794147,2.648474 c -0.09447,-0.04967 -2.05213,-0.07081 -2.05213,-0.0058 z"
           id="path877"
           inkscape:connector-curvature="0"
           sodipodi:nodetypes="cccsc" />
        <path
           style="fill:#fadf06;fill-opacity:1;stroke:#000000;stroke-width:0;stroke-linecap:butt;stroke-linejoin:miter;stroke-miterlimit:4;stroke-dasharray:none;stroke-opacity:1"
           d="m 42.515901,25.002905 0.038,-0.616808 -2.725844,-4.749053 4.258138,4.10931 -1.39733,-5.738151 2.976562,4.663281 0.190169,-5.779492 1.922169,5.658297 1.543481,-5.717897 0.30402,5.834828 2.853102,-4.759068 -1.145918,5.46065 4.092565,-3.987327 -2.677705,5.355413 5.226788,-2.899875 -4.139335,4.443356 5.752975,-1.438244 -4.263985,2.86161 c -1.657541,-0.626287 -3.524689,-2.060673 -5.371081,-1.493524 -3.97882,2.788296 -4.689039,1.085523 -7.436771,-1.207306 z"
           id="path913"
           inkscape:connector-curvature="0"
           sodipodi:nodetypes="cccccccccccccccccccc" />
      </g>
    </g>
  </g>
</svg>
