<?xml version="1.0" encoding="UTF-8" standalone="no"?>
<svg
   xmlns:dc="http://purl.org/dc/elements/1.1/"
   xmlns:cc="http://creativecommons.org/ns#"
   xmlns:rdf="http://www.w3.org/1999/02/22-rdf-syntax-ns#"
   xmlns:svg="http://www.w3.org/2000/svg"
   xmlns="http://www.w3.org/2000/svg"
   xmlns:sodipodi="http://sodipodi.sourceforge.net/DTD/sodipodi-0.dtd"
   xmlns:inkscape="http://www.inkscape.org/namespaces/inkscape"
   width="291.17371mm"
   height="178.62418mm"
   viewBox="0 0 291.17371 178.62418"
   version="1.1"
   id="svg1962"
   inkscape:version="1.0.2-2 (e86c870879, 2021-01-15)"
   sodipodi:docname="Flag of Douglas County, Colorado.svg">
  <defs
     id="defs1956">
    <inkscape:path-effect
       effect="spiro"
       id="path-effect2951"
       is_visible="true"
       lpeversion="1" />
    <inkscape:path-effect
       effect="spiro"
       id="path-effect2945"
       is_visible="true"
       lpeversion="1" />
    <inkscape:path-effect
       effect="spiro"
       id="path-effect2941"
       is_visible="true"
       lpeversion="1" />
    <inkscape:path-effect
       effect="spiro"
       id="path-effect2937"
       is_visible="true"
       lpeversion="1" />
    <inkscape:path-effect
       effect="spiro"
       id="path-effect2933"
       is_visible="true"
       lpeversion="1" />
    <inkscape:path-effect
       effect="spiro"
       id="path-effect2929"
       is_visible="true"
       lpeversion="1" />
    <inkscape:path-effect
       effect="spiro"
       id="path-effect2925"
       is_visible="true"
       lpeversion="1" />
    <inkscape:path-effect
       effect="spiro"
       id="path-effect2921"
       is_visible="true"
       lpeversion="1" />
    <inkscape:path-effect
       effect="spiro"
       id="path-effect2876"
       is_visible="true"
       lpeversion="1" />
    <inkscape:path-effect
       effect="spiro"
       id="path-effect2854"
       is_visible="true"
       lpeversion="1" />
    <inkscape:path-effect
       effect="spiro"
       id="path-effect2813"
       is_visible="true"
       lpeversion="1" />
  </defs>
  <sodipodi:namedview
     id="base"
     pagecolor="#ffffff"
     bordercolor="#666666"
     borderopacity="1.0"
     inkscape:pageopacity="0.0"
     inkscape:pageshadow="2"
     inkscape:zoom="1.4"
     inkscape:cx="553.94581"
     inkscape:cy="344.08805"
     inkscape:document-units="mm"
     inkscape:current-layer="layer1"
     inkscape:document-rotation="0"
     showgrid="false"
     inkscape:window-width="2560"
     inkscape:window-height="1369"
     inkscape:window-x="-8"
     inkscape:window-y="-8"
     inkscape:window-maximized="1"
     inkscape:snap-bbox="true"
     inkscape:bbox-paths="true"
     inkscape:bbox-nodes="true"
     inkscape:snap-bbox-edge-midpoints="true"
     inkscape:snap-bbox-midpoints="true"
     inkscape:object-paths="true"
     inkscape:snap-intersection-paths="true" />
  <metadata
     id="metadata1959">
    <rdf:RDF>
      <cc:Work
         rdf:about="">
        <dc:format>image/svg+xml</dc:format>
        <dc:type
           rdf:resource="http://purl.org/dc/dcmitype/StillImage" />
        <dc:title></dc:title>
      </cc:Work>
    </rdf:RDF>
  </metadata>
  <g
     inkscape:label="Layer 1"
     inkscape:groupmode="layer"
     id="layer1"
     transform="translate(71.182245,-48.101161)">
    <g
       id="g3107">
      <path
         style="fill:#4187dc;fill-opacity:1;stroke:none;stroke-width:9.83999;stroke-linecap:butt;stroke-linejoin:miter;stroke-miterlimit:4;stroke-dasharray:none;stroke-opacity:1"
         d="M -71.182245,48.101161 V 226.72533 H 219.99146 V 48.101161 Z"
         id="path1579"
         sodipodi:nodetypes="ccccc" />
      <g
         aria-label="C
O
U
N
T
Y"
         id="text2647"
         style="font-style:normal;font-variant:normal;font-weight:normal;font-stretch:normal;font-size:21.53px;line-height:0.95;font-family:'Gloucester MT Std';-inkscape-font-specification:'Gloucester MT Std';text-align:center;letter-spacing:0px;word-spacing:0px;text-anchor:middle;fill:#ffffff;stroke-width:0.538251">
        <path
           d="m 182.32613,76.883554 h -0.68896 c -0.0646,0 -0.10765,0 -0.23683,0.06459 -0.27989,0.15071 -0.51672,0.19377 -0.88273,0.19377 -0.34448,0 -0.71049,-0.04306 -1.44251,-0.23683 -1.05497,-0.25836 -1.7224,-0.34448 -2.41136,-0.34448 -4.0907,0 -7.57856,3.78928 -7.57856,8.24599 0,2.174531 0.88273,4.306001 2.43289,5.834631 1.37792,1.33486 3.18644,2.00229 5.46862,2.00229 0.88273,0 1.61475,-0.10765 2.34677,-0.32295 1.16262,-0.38754 2.34677,-1.16262 3.05726,-2.04535 0.27989,-0.36601 0.51672,-0.77508 0.51672,-0.90426 0,-0.10765 -0.0861,-0.30142 -0.27989,-0.53825 -0.25836,-0.30142 -0.45213,-0.47366 -0.60284,-0.49519 -0.12918,0 -0.4306,0.2153 -0.77508,0.55978 -1.16262,1.22721 -2.41136,1.80852 -3.89693,1.80852 -1.63628,0 -2.92808,-0.71049 -3.70316,-2.00229 -0.51672,-0.88273 -0.92579,-2.62666 -0.92579,-4.069171 0,-4.06917 1.5071,-6.22217 4.37059,-6.22217 1.18415,0 2.06688,0.34448 2.84196,1.05497 0.30142,0.30142 0.40907,0.4306 0.66743,0.81814 0.38754,0.53825 0.58131,0.6459 1.11956,0.6459 0.25836,0 0.47366,-0.02153 0.60284,-0.06459 z"
           style="font-style:normal;font-variant:normal;font-weight:normal;font-stretch:normal;font-family:'Gloucester MT Std';-inkscape-font-specification:'Gloucester MT Std';fill:#ffffff;stroke-width:0.538251"
           id="path3027" />
        <path
           d="m 175.95325,98.822625 c 0.75355,0 1.46404,0.23683 2.04535,0.71049 1.11956,0.882725 1.55016,2.368295 1.55016,5.317905 0,3.18644 -0.27989,4.43519 -1.20568,5.38251 -0.62437,0.6459 -1.48557,0.99038 -2.38983,0.99038 -0.94732,0 -1.80852,-0.32295 -2.41136,-0.94732 -0.90426,-0.92579 -1.27027,-2.4329 -1.27027,-5.38251 0,-2.77737 0.34448,-4.15529 1.27027,-5.124135 0.6459,-0.6459 1.39945,-0.94732 2.41136,-0.94732 z m -0.15071,-1.85158 c -1.20568,0 -2.56207,0.40907 -3.6601,1.0765 -2.28218,1.39945 -3.55245,3.918455 -3.55245,6.975715 0,2.41136 0.79661,4.45672 2.30371,5.96382 1.35639,1.35639 3.20797,2.13147 5.05955,2.13147 1.87311,0 3.74622,-0.79661 5.08108,-2.13147 1.46404,-1.46404 2.23912,-3.5094 2.23912,-5.85617 0,-4.71507 -3.16491,-8.159865 -7.47091,-8.159865 z"
           style="font-style:normal;font-variant:normal;font-weight:normal;font-stretch:normal;font-family:'Gloucester MT Std';-inkscape-font-specification:'Gloucester MT Std';fill:#ffffff;stroke-width:0.538251"
           id="path3029" />
        <path
           d="m 168.41775,117.72597 v 0.94732 c 0,0.38754 0.10765,0.51672 0.58131,0.60284 0.75355,0.15071 1.03344,0.47366 1.03344,1.27027 v 7.36326 c 0,1.95923 0.34448,3.14338 1.18415,4.02611 1.01191,1.05497 2.73431,1.65781 4.80119,1.65781 3.91846,0 5.98534,-1.85158 5.98534,-5.33944 v -7.9661 c 0,-0.25836 0.10765,-0.55978 0.23683,-0.71049 0.19377,-0.17224 0.34448,-0.23683 0.71049,-0.32295 0.53825,-0.12918 0.68896,-0.30142 0.68896,-0.73202 v -0.79661 h -5.1672 v 0.92579 c 0,0.36601 0.12918,0.47366 0.55978,0.55978 0.81814,0.12918 1.14109,0.47366 1.14109,1.27027 v 7.83692 c 0,2.02382 -1.37792,3.33715 -3.48786,3.33715 -0.96885,0 -1.95923,-0.36601 -2.49748,-0.92579 -0.47366,-0.49519 -0.79661,-1.48557 -0.79661,-2.49748 v -7.68621 c 0,-0.53825 0.0431,-0.73202 0.30142,-0.99038 0.19377,-0.17224 0.32295,-0.23683 0.68896,-0.30142 0.49519,-0.0861 0.6459,-0.23683 0.6459,-0.6459 v -0.88273 z"
           style="font-style:normal;font-variant:normal;font-weight:normal;font-stretch:normal;font-family:'Gloucester MT Std';-inkscape-font-specification:'Gloucester MT Std';fill:#ffffff;stroke-width:0.538251"
           id="path3031" />
        <path
           d="m 168.89141,153.74566 h 5.05955 v -0.81814 c 0,-0.4306 -0.15071,-0.60284 -0.71049,-0.75355 -0.6459,-0.17224 -0.92579,-0.45213 -0.92579,-1.03344 l -0.0215,-8.3967 0.0431,-0.0431 7.21255,11.04489 h 1.98076 v -12.98259 c 0,-0.62437 0.17224,-0.83967 0.88273,-1.01191 0.60284,-0.12918 0.75355,-0.34448 0.75355,-0.92579 v -0.6459 h -5.21026 v 0.71049 c 0,0.51672 0.2153,0.75355 0.83967,0.90426 0.58131,0.15071 0.83967,0.40907 0.8612,0.83967 v 7.25561 h -0.0431 l -6.35135,-9.71003 h -4.37059 v 1.01191 c 0,0.4306 0.12918,0.58131 0.58131,0.62437 0.66743,0.0861 0.99038,0.34448 0.99038,0.96885 v 10.35593 c -0.0215,0.58131 -0.27989,0.79661 -0.90426,1.03344 -0.51672,0.2153 -0.66743,0.32295 -0.66743,0.73202 z"
           style="font-style:normal;font-variant:normal;font-weight:normal;font-stretch:normal;font-family:'Gloucester MT Std';-inkscape-font-specification:'Gloucester MT Std';fill:#ffffff;stroke-width:0.538251"
           id="path3033" />
        <path
           d="m 169.40813,158.50379 v 3.78928 h 0.66743 c 0.49519,0 0.73202,-0.15071 1.01191,-0.68896 0.4306,-0.81814 1.01191,-1.18415 1.91617,-1.18415 h 1.20568 v 11.10948 c 0,0.27989 -0.10765,0.53825 -0.27989,0.73202 -0.19377,0.17224 -0.30142,0.2153 -0.62437,0.32295 -0.55978,0.15071 -0.75355,0.34448 -0.75355,0.81814 v 0.79661 h 6.73889 v -0.71049 c 0,-0.60284 -0.12918,-0.77508 -0.66743,-0.90426 -0.68896,-0.15071 -1.05497,-0.51672 -1.05497,-1.05497 v -11.10948 h 1.27027 c 0.62437,0 1.09803,0.19377 1.52863,0.60284 0.15071,0.17224 0.19377,0.23683 0.34448,0.51672 0.32295,0.58131 0.58131,0.75355 1.14109,0.75355 h 0.53825 v -3.78928 h -0.62437 c -0.0215,0 -0.10765,0 -0.23683,0.0215 -0.58131,0.0861 -1.14109,0.10765 -1.70087,0.10765 h -8.76271 c -0.17224,0 -0.38754,-0.0215 -0.79661,-0.0861 -0.19377,-0.0215 -0.34448,-0.0431 -0.40907,-0.0431 z"
           style="font-style:normal;font-variant:normal;font-weight:normal;font-stretch:normal;font-family:'Gloucester MT Std';-inkscape-font-specification:'Gloucester MT Std';fill:#ffffff;stroke-width:0.538251"
           id="path3035" />
        <path
           d="m 169.32201,179.08647 v 0.96885 c 0,0.19377 0.0646,0.36601 0.17224,0.49519 0.10765,0.0861 0.17224,0.10765 0.38754,0.17224 0.34448,0.0861 0.49519,0.19377 0.62437,0.38754 l 3.85387,7.1049 v 3.76775 c 0,0.58131 -0.27989,0.92579 -0.94732,1.0765 -0.58131,0.12918 -0.75355,0.32295 -0.75355,0.77508 v 0.81814 h 6.82501 v -0.81814 c -0.0215,-0.47366 -0.17224,-0.62437 -0.77508,-0.77508 -0.73202,-0.17224 -0.99038,-0.47366 -0.99038,-1.18415 v -3.76775 l 3.33715,-6.41594 c 0.30142,-0.55978 0.49519,-0.77508 0.92579,-0.96885 0.40907,-0.19377 0.53825,-0.36601 0.53825,-0.68896 v -0.94732 h -4.28447 v 0.88273 c 0,0.30142 0.12918,0.47366 0.53825,0.68896 0.34448,0.17224 0.47366,0.32295 0.47366,0.55978 0,0.10765 -0.0646,0.25836 -0.17224,0.47366 l -2.28218,4.41365 -2.38983,-4.39212 c -0.10765,-0.19377 -0.17224,-0.36601 -0.17224,-0.51672 0,-0.12918 0.0431,-0.2153 0.12918,-0.32295 0.0861,-0.0861 0.15071,-0.10765 0.32295,-0.15071 0.47366,-0.12918 0.66743,-0.34448 0.66743,-0.77508 v -0.8612 z"
           style="font-style:normal;font-variant:normal;font-weight:normal;font-stretch:normal;font-family:'Gloucester MT Std';-inkscape-font-specification:'Gloucester MT Std';fill:#ffffff;stroke-width:0.538251"
           id="path3037" />
      </g>
      <g
         aria-label="DOUGLAS"
         id="text2571-1"
         style="font-style:normal;font-variant:normal;font-weight:normal;font-stretch:normal;font-size:21.53px;line-height:1.25;font-family:'Gloucester MT Std';-inkscape-font-specification:'Gloucester MT Std';text-align:center;letter-spacing:9.26042px;word-spacing:0px;text-anchor:middle;fill:#ffffff;stroke-width:0.538251">
        <path
           d="m -29.813758,61.676854 h 1.9377 c 2.94961,0 4.37059,2.02382 4.37059,6.26523 0,3.83234 -1.2918,5.66239 -4.02611,5.66239 h -2.28218 z m -5.01649,-1.80852 v 1.01191 c 0.02153,0.36601 0.12918,0.47366 0.60284,0.55978 0.73202,0.17224 1.05497,0.51672 1.05497,1.16262 v 10.1191 c 0,0.40907 -0.04306,0.58131 -0.25836,0.79661 -0.19377,0.17224 -0.34448,0.23683 -0.71049,0.32295 -0.49519,0.08612 -0.62437,0.23683 -0.62437,0.645901 v 0.94732 h 7.72927 c 1.9377,0 3.83234,-0.75355 5.10261,-2.023821 1.37792,-1.37792 2.08841,-3.31562 2.08841,-5.66239 0,-4.58589 -2.92808,-7.87998 -7.04031,-7.87998 z"
           style="font-style:normal;font-variant:normal;font-weight:normal;font-stretch:normal;font-family:'Gloucester MT Std';-inkscape-font-specification:'Gloucester MT Std';fill:#ffffff;stroke-width:0.538251"
           id="path3012" />
        <path
           d="m -1.9083624,61.418494 c 0.75355,0 1.46404007,0.23683 2.04535009,0.71049 1.11956001,0.88273 1.55016001,2.3683 1.55016001,5.31791 0,3.18644 -0.27989,4.43518 -1.20568,5.3825 -0.62437002,0.6459 -1.48557,0.99038 -2.3898301,0.99038 -0.94732,0 -1.80852,-0.32295 -2.4113601,-0.94732 -0.90426,-0.92579 -1.27027,-2.43289 -1.27027,-5.3825 0,-2.77737 0.34448,-4.15529 1.27027,-5.12414 0.6459001,-0.6459 1.3994501,-0.94732 2.4113601,-0.94732 z m -0.15071,-1.85158 c -1.20568,0 -2.5620701,0.40907 -3.6601001,1.0765 -2.2821801,1.39945 -3.5524501,3.91846 -3.5524501,6.97572 0,2.41136 0.79661,4.45671 2.3037101,5.96381 1.35639,1.356391 3.2079701,2.131471 5.0595501,2.131471 1.87311008,0 3.7462201,-0.79661 5.0810802,-2.131471 1.46404,-1.46404 2.2391201,-3.50939 2.2391201,-5.85616 0,-4.71507 -3.1649101,-8.15987 -7.4709103,-8.15987 z"
           style="font-style:normal;font-variant:normal;font-weight:normal;font-stretch:normal;font-family:'Gloucester MT Std';-inkscape-font-specification:'Gloucester MT Std';fill:#ffffff;stroke-width:0.538251"
           id="path3014" />
        <path
           d="m 15.748753,59.868334 v 0.94732 c 0,0.38754 0.10765,0.51672 0.58131,0.60284 0.75355,0.15071 1.03344,0.47366 1.03344,1.27027 v 7.36326 c 0,1.95923 0.34448,3.14338 1.18415,4.02611 1.01191,1.054971 2.73431,1.657811 4.80119,1.657811 3.91846,0 5.98534,-1.851581 5.98534,-5.339441 v -7.9661 c 0,-0.25836 0.10765,-0.55978 0.23683,-0.71049 0.19377,-0.17224 0.34448,-0.23683 0.71049,-0.32295 0.53825,-0.12918 0.68896,-0.30142 0.68896,-0.73202 v -0.79661 h -5.1672 v 0.92579 c 0,0.36601 0.12918,0.47366 0.55978,0.55978 0.81814,0.12918 1.14109,0.47366 1.14109,1.27027 v 7.83692 c 0,2.02382 -1.37792,3.33715 -3.48786,3.33715 -0.96885,0 -1.95923,-0.36601 -2.49748,-0.92579 -0.47366,-0.49519 -0.79661,-1.48557 -0.79661,-2.49748 v -7.68621 c 0,-0.53825 0.04306,-0.73202 0.30142,-0.99038 0.19377,-0.17224 0.32295,-0.23683 0.68896,-0.30142 0.49519,-0.08612 0.6459,-0.23683 0.6459,-0.6459 v -0.88273 z"
           style="font-style:normal;font-variant:normal;font-weight:normal;font-stretch:normal;font-family:'Gloucester MT Std';-inkscape-font-specification:'Gloucester MT Std';fill:#ffffff;stroke-width:0.538251"
           id="path3016" />
        <path
           d="m 55.990843,73.432234 c -0.58131,-0.17224 -0.94732,-0.60284 -0.94732,-1.16262 v -1.65781 c 0,-0.10765 0.02153,-0.27989 0.08612,-0.58131 0.06459,-0.27989 0.06459,-0.40907 0.06459,-0.51672 0,-0.27989 -0.06459,-0.36601 -0.27989,-0.36601 h -4.41365 v 0.51672 c 0,0.58131 0.12918,0.77508 0.55978,0.92579 0.47366,0.15071 0.68896,0.4306 0.68896,0.92579 v 0.68896 c 0,1.03344 -1.0765,1.70087 -2.755841,1.70087 -2.90655,0 -4.37059,-2.00229 -4.37059,-6.0284 0,-1.5071 0.2153,-2.84196 0.60284,-3.93999 0.19377,-0.51672 0.53825,-1.05497 0.99038,-1.52863 0.68896,-0.68896 1.65781,-1.0765 2.73431,-1.0765 1.011911,0 1.894641,0.34448 2.669721,1.0765 0.30142,0.32295 0.40907,0.47366 0.66743,0.88273 0.4306,0.68896 0.71049,0.88273 1.2918,0.88273 0.2153,0 0.40907,-0.02153 0.55978,-0.08612 v -3.89693 c -0.04306,0 -0.06459,-0.02153 -0.12918,-0.02153 -0.06459,-0.02153 -0.10765,-0.02153 -0.12918,-0.02153 -0.08612,0 -0.23683,0.04306 -0.45213,0.10765 -0.36601,0.12918 -0.62437,0.17224 -0.88273,0.17224 -0.17224,0 -0.40907,-0.06459 -0.81814,-0.2153 -1.09803,-0.36601 -2.174531,-0.58131 -3.164911,-0.58131 -4.19835,0 -7.5355,3.68163 -7.5355,8.33211 0,4.69354 3.27256,7.772331 8.31058,7.772331 1.679341,0 4.672011,-0.47366 6.652771,-1.03344 z"
           style="font-style:normal;font-variant:normal;font-weight:normal;font-stretch:normal;font-family:'Gloucester MT Std';-inkscape-font-specification:'Gloucester MT Std';fill:#ffffff;stroke-width:0.538251"
           id="path3018" />
        <path
           d="m 66.112454,59.889864 v 0.83967 c 0.02153,0.38754 0.12918,0.51672 0.62437,0.6459 0.73202,0.19377 0.94732,0.45213 0.94732,1.11956 v 10.29134 c 0,0.68896 -0.25836,0.99038 -0.94732,1.0765 -0.47366,0.04306 -0.60284,0.19377 -0.60284,0.602841 v 0.96885 h 11.8415 v -4.176821 h -0.62437 c -0.49519,0 -0.79661,0.27989 -1.14109,1.05497 -0.38754,0.90426 -0.8612,1.27027 -1.61475,1.27027 h -3.55245 v -11.15254 c 0,-0.6459 0.25836,-0.94732 0.94732,-1.03344 0.55978,-0.08612 0.73202,-0.25836 0.73202,-0.77508 v -0.73202 z"
           style="font-style:normal;font-variant:normal;font-weight:normal;font-stretch:normal;font-family:'Gloucester MT Std';-inkscape-font-specification:'Gloucester MT Std';fill:#ffffff;stroke-width:0.538251"
           id="path3020" />
        <path
           d="m 94.319274,64.734114 1.95923,5.21026 h -3.89693 z m 0.88273,-5.05955 -0.2153,0.15071 c -0.88273,0.71049 -1.31333,0.96885 -2.02382,1.31333 l 0.40907,1.05497 -3.93999,10.74347 c -0.27989,0.66743 -0.45213,0.8612 -0.94732,1.01191 -0.36601,0.10765 -0.45213,0.23683 -0.45213,0.688961 v 0.79661 h 4.17682 v -0.81814 c 0,-0.409071 -0.10765,-0.559781 -0.49519,-0.688961 -0.40907,-0.15071 -0.55978,-0.30142 -0.55978,-0.53825 0,-0.10765 0.04306,-0.25836 0.12918,-0.49519 l 0.47366,-1.27027 h 5.14567 l 0.51672,1.39945 c 0.04306,0.10765 0.06459,0.19377 0.06459,0.27989 0,0.25836 -0.19377,0.45213 -0.60284,0.60284 -0.32295,0.10765 -0.40907,0.2153 -0.40907,0.581311 v 0.94732 h 5.791566 v -1.0765 c 0,-0.322951 -0.12918,-0.452131 -0.55978,-0.538251 -0.4306,-0.10765 -0.66743,-0.34448 -0.8612,-0.88273 l -4.951896,-13.26248 z"
           style="font-style:normal;font-variant:normal;font-weight:normal;font-stretch:normal;font-family:'Gloucester MT Std';-inkscape-font-specification:'Gloucester MT Std';fill:#ffffff;stroke-width:0.538251"
           id="path3022" />
        <path
           d="m 112.5577,70.805574 v 4.801191 h 0.96885 c 0.19377,0 0.32295,-0.08612 0.58131,-0.34448 0.27989,-0.27989 0.51672,-0.4306 0.75355,-0.4306 0.10765,0 0.30142,0.06459 0.60284,0.17224 1.09803,0.4306 2.41136,0.68896 3.40174,0.68896 3.0142,0 5.08108,-1.980761 5.08108,-4.844251 0,-1.42098 -0.38754,-2.41136 -1.31333,-3.38021 -0.30142,-0.30142 -0.55978,-0.49519 -0.75355,-0.62437 -0.60284,-0.4306 -1.91617,-0.94732 -3.33715,-1.33486 -1.05497,-0.25836 -2.02382,-0.62437 -2.43289,-0.88273 -0.23683,-0.12918 -0.49519,-0.38754 -0.6459,-0.55978 -0.19377,-0.27989 -0.30142,-0.60284 -0.30142,-0.94732 0,-1.01191 1.01191,-1.76546 2.34677,-1.76546 1.44251,0 2.66972,0.71049 3.50939,2.06688 0.34448,0.51672 0.53825,0.62437 1.20568,0.62437 h 0.45213 v -4.306 h -0.45213 c -0.2153,0 -0.38754,0.06459 -0.68896,0.25836 -0.36601,0.2153 -0.58131,0.27989 -0.8612,0.27989 -0.23683,0 -0.47366,-0.04306 -0.99038,-0.2153 -0.96885,-0.30142 -1.63628,-0.4306 -2.41136,-0.4306 -1.42098,0 -2.51901,0.40907 -3.31562,1.20568 -0.77508,0.77508 -1.27027,2.00229 -1.27027,3.12185 0,1.33486 0.55978,2.51901 1.61475,3.38021 0.71049,0.60284 1.9377,1.11956 3.63857,1.57169 0.94732,0.23683 1.87311,0.55978 2.28218,0.81814 0.17224,0.10765 0.38754,0.27989 0.53825,0.47366 0.34448,0.40907 0.53825,0.92579 0.53825,1.44251 0,1.33486 -1.03344,2.21759 -2.62666,2.21759 -1.70087,0 -3.2295,-0.83967 -4.32753,-2.34677 -0.38754,-0.53825 -0.58131,-0.71049 -0.90426,-0.71049 z"
           style="font-style:normal;font-variant:normal;font-weight:normal;font-stretch:normal;font-family:'Gloucester MT Std';-inkscape-font-specification:'Gloucester MT Std';fill:#ffffff;stroke-width:0.538251"
           id="path3024" />
      </g>
      <path
         style="fill:#81a736;fill-opacity:1;stroke:none;stroke-width:0.264583px;stroke-linecap:butt;stroke-linejoin:miter;stroke-opacity:1"
         d="m -25.282482,147.71521 -3.60024,-27.21428 -1.69144,23.67076 -1.55915,-40.72694 -7.60677,81.8791 H 137.74694 v -30.88334 l -2.93449,10.95168 -2.91203,-15.06095 -10.22306,14.29892 -15.03391,-17.74002 -116.759642,-3.66339 c -0.678599,-6.4927 -1.720194,-12.94745 -3.1183,-19.32404 -0.870603,-3.97072 -1.879356,-7.91114 -3.02382,-11.81175 0.31765,2.5207 0.412633,5.06942 0.28348,7.60677 -0.150346,2.95371 -0.603124,5.88443 -0.8032,8.83519 -0.274424,4.04726 -0.06829,8.1441 0.85045,12.09524 0.312801,1.34523 0.707498,2.6714 1.18118,3.96875 l -1.09416,6.09383 -2.45062,-4.24461 -1.57586,2.72949 -1.11596,-1.93288 c 0.542501,-7.48249 0.589885,-15.00084 0.14174,-22.48958 -0.24642,-4.11781 -0.646367,-8.24887 -1.7009,-12.23698 -0.588881,-2.22707 -1.380273,-4.40055 -2.361224,-6.48487"
         id="path2949"
         inkscape:path-effect="#path-effect2951"
         inkscape:original-d="m -25.282482,147.71521 -3.60024,-27.21428 -1.69144,23.67076 -1.55915,-40.72694 -7.60677,81.8791 H 137.74694 v -30.88334 l -2.93449,10.95168 -2.91203,-15.06095 -10.22306,14.29892 -15.03391,-17.74002 -116.759642,-3.66339 c -1.03918,-6.44108 -2.11063,-15.38705 -3.1183,-19.32404 -1.00767,-3.93698 -2.01562,-7.87423 -3.02382,-11.81175 0.0948,2.53585 0.55094,4.66144 0.28348,7.60677 -0.26747,2.94533 -1.08694,4.80318 -0.8032,8.83519 0.28377,4.03201 0.45646,10.77206 0.85045,12.09524 0.39399,1.32318 1.18118,3.96875 1.18118,3.96875 l -1.09416,6.09383 -2.45062,-4.24461 -1.57586,2.72949 -1.11596,-1.93288 c 0.0475,-7.49626 0.70842,-18.41085 0.14174,-22.48958 -0.56671,-4.07873 -0.36288,-10.07562 -1.7009,-12.23698 -1.33803,-2.16136 -1.022664,-4.32298 -2.361224,-6.48487"
         sodipodi:nodetypes="ccccccccccccscssscccccssc" />
      <g
         aria-label="1861"
         id="text2575-2"
         style="font-style:normal;font-variant:normal;font-weight:normal;font-stretch:normal;font-size:21.53px;line-height:1.25;font-family:'Gloucester MT Std';-inkscape-font-specification:'Gloucester MT Std';text-align:center;letter-spacing:9.26042px;word-spacing:0px;text-anchor:middle;fill:#ffffff;stroke-width:0.538251">
        <path
           d="m 16.156559,199.60727 c -0.88273,0.8612 -1.70087,1.35639 -3.38021,2.06688 v 1.42098 h 2.13147 v 9.02107 c 0,0.79661 -0.15071,1.03344 -0.77508,1.16262 -0.68896,0.15071 -0.92579,0.45213 -0.92579,1.16262 v 0.66743 h 6.65277 v -1.01191 c -0.02153,-0.40907 -0.17224,-0.55978 -0.75355,-0.73202 -0.81814,-0.25836 -1.03344,-0.55978 -1.03344,-1.35639 v -12.40128 z"
           style="font-style:normal;font-variant:normal;font-weight:normal;font-stretch:normal;font-family:'Gloucester MT Std';-inkscape-font-specification:'Gloucester MT Std';fill:#ffffff;stroke-width:0.538251"
           id="path3003" />
        <path
           d="m 36.052798,205.63567 c -1.70087,-0.83967 -2.30371,-1.55016 -2.30371,-2.69125 0,-1.03344 0.6459,-1.74393 1.57169,-1.74393 1.16262,0 1.80852,0.79661 1.80852,2.23912 0,0.99038 -0.27989,1.57169 -1.0765,2.19606 z m -1.42098,2.86349 c 1.80852,0.90426 2.47595,1.70087 2.47595,2.92808 0,1.24874 -0.73202,2.06688 -1.85158,2.06688 -1.24874,0 -1.78699,-0.68896 -1.78699,-2.28218 0,-1.5071 0.25836,-2.08841 1.16262,-2.71278 z m -1.59322,-1.05497 c -1.5071,1.05497 -2.17453,2.19606 -2.17453,3.70316 0,2.3683 1.83005,4.06917 4.41365,4.06917 2.69125,0 4.56436,-1.80852 4.56436,-4.43518 0,-1.74393 -0.66743,-2.92808 -2.32524,-4.19835 1.37792,-0.90426 2.06688,-2.02382 2.06688,-3.40174 0,-2.10994 -1.85158,-3.68163 -4.32753,-3.68163 -2.43289,0 -4.17682,1.74393 -4.17682,4.15529 0,1.5071 0.66743,2.7989 1.95923,3.78928 z"
           style="font-style:normal;font-variant:normal;font-weight:normal;font-stretch:normal;font-family:'Gloucester MT Std';-inkscape-font-specification:'Gloucester MT Std';fill:#ffffff;stroke-width:0.538251"
           id="path3005" />
        <path
           d="m 52.956367,204.5807 c 0,-2.21759 0.73202,-3.33715 2.17453,-3.33715 0.30142,0 0.55978,0.0431 0.75355,0.15071 -0.2153,0.32295 -0.34448,0.71049 -0.34448,1.0765 0,0.77508 0.62437,1.37792 1.39945,1.37792 0.83967,0 1.48557,-0.68896 1.48557,-1.63628 0,-1.52863 -1.39945,-2.64819 -3.2295,-2.64819 -1.70087,0 -3.20797,0.90426 -4.15529,2.49748 -0.73202,1.20568 -1.20568,3.50939 -1.20568,5.74851 0,3.05726 0.53825,5.03802 1.74393,6.2437 0.77508,0.79661 1.74393,1.20568 2.84196,1.20568 2.56207,0 4.26294,-2.04535 4.26294,-5.10261 0,-2.71278 -1.48557,-4.65048 -3.57398,-4.65048 -0.73202,0 -1.35639,0.25836 -2.153,0.8612 z m -0.02153,4.80119 c 0,-1.18415 0.53825,-1.95923 1.37792,-1.95923 0.88273,0 1.33486,0.73202 1.33486,2.153 v 2.13147 c 0,1.18415 -0.49519,1.87311 -1.33486,1.87311 -0.92579,0 -1.37792,-0.79661 -1.37792,-2.45442 z"
           style="font-style:normal;font-variant:normal;font-weight:normal;font-stretch:normal;font-family:'Gloucester MT Std';-inkscape-font-specification:'Gloucester MT Std';fill:#ffffff;stroke-width:0.538251"
           id="path3007" />
        <path
           d="m 72.874134,199.60727 c -0.88273,0.8612 -1.70087,1.35639 -3.38021,2.06688 v 1.42098 h 2.13147 v 9.02107 c 0,0.79661 -0.15071,1.03344 -0.77508,1.16262 -0.68896,0.15071 -0.92579,0.45213 -0.92579,1.16262 v 0.66743 h 6.65277 v -1.01191 c -0.02153,-0.40907 -0.17224,-0.55978 -0.75355,-0.73202 -0.81814,-0.25836 -1.03344,-0.55978 -1.03344,-1.35639 v -12.40128 z"
           style="font-style:normal;font-variant:normal;font-weight:normal;font-stretch:normal;font-family:'Gloucester MT Std';-inkscape-font-specification:'Gloucester MT Std';fill:#ffffff;stroke-width:0.538251"
           id="path3009" />
      </g>
      <ellipse
         style="fill:#efb013;fill-opacity:1;stroke:#000000;stroke-width:0.5;stroke-linejoin:round;stroke-miterlimit:4;stroke-dasharray:none;stroke-opacity:1"
         id="ellipse2701"
         cx="44.676823"
         cy="135.60663"
         rx="52.311169"
         ry="53.28064" />
      <circle
         style="fill:#4187dc;fill-opacity:1;stroke:none;stroke-width:0.5;stroke-linejoin:round;stroke-miterlimit:4;stroke-dasharray:none;stroke-opacity:1"
         id="circle2703"
         cx="44.676823"
         cy="135.60663"
         r="37.288559" />
      <circle
         style="fill:#000000;fill-opacity:1;stroke:none;stroke-width:0.24165;stroke-linejoin:round;stroke-miterlimit:4;stroke-dasharray:none;stroke-opacity:1"
         id="circle2751-3"
         cx="-0.11502271"
         cy="135.60663"
         r="2.2185316" />
      <circle
         style="fill:#000000;fill-opacity:1;stroke:none;stroke-width:0.24165;stroke-linejoin:round;stroke-miterlimit:4;stroke-dasharray:none;stroke-opacity:1"
         id="circle2809"
         cx="-89.468666"
         cy="135.60663"
         r="2.2185316"
         transform="scale(-1,1)" />
      <g
         aria-label="JAMAIS ARRIERE"
         id="text2817"
         style="font-style:normal;font-variant:normal;font-weight:normal;font-stretch:normal;font-size:12.5236px;line-height:1.25;font-family:'Gloucester MT Std';-inkscape-font-specification:'Gloucester MT Std';text-align:center;letter-spacing:1.05833px;word-spacing:0px;text-anchor:middle;fill:#ffffff;stroke-width:0.538251">
        <path
           d="m -4.1346049,124.31267 -0.6898975,3.6932 0.5170478,0.0966 c 0.2115809,0.0268 0.2992428,-0.0333 0.4036773,-0.31954 0.181273,-0.42479 0.4081391,-0.54804 0.925187,-0.45145 l 5.2197207,0.97506 c 0.4801159,0.0897 0.9471087,0.11322 1.752576,0.0981 0.4715921,-0.001 0.7247043,0.008 0.9093642,0.0425 0.2831453,0.0529 0.4170752,0.15435 0.3871797,0.31439 -0.016098,0.0862 -0.089149,0.13623 -0.2552744,0.20711 -0.2784085,0.12636 -0.4067894,0.268 -0.4481832,0.48959 -0.075889,0.40626 0.263673,0.83915 0.7191675,0.92424 0.4554945,0.0851 0.7706975,-0.23824 0.8994784,-0.92764 0.1172826,-0.62784 -0.015435,-1.2132 -0.3681198,-1.71225 -0.4250615,-0.58901 -1.0384324,-0.92018 -2.2156567,-1.16557 l -6.5000296,-1.21422 c -0.1231066,-0.023 -0.271647,-0.11444 -0.3540346,-0.21901 -0.057766,-0.1 -0.0832,-0.16843 -0.1125582,-0.35228 -0.040182,-0.26231 -0.1248688,-0.35457 -0.3833927,-0.40286 z"
           style="font-style:normal;font-variant:normal;font-weight:normal;font-stretch:normal;font-size:12.5236px;font-family:'Gloucester MT Std';-inkscape-font-specification:'Gloucester MT Std';fill:#ffffff;stroke-width:0.538251"
           id="path2953" />
        <path
           d="m 0.40495235,119.18116 3.23787885,0.0129 -0.8062817,2.11853 z m -2.56794015,-1.52672 0.037386,0.14823 c 0.203613,0.62688 0.2549762,0.91443 0.295248,1.37196 l 0.6581622,-0.004 5.0253993,4.36479 c 0.3049325,0.29025 0.3746371,0.42398 0.3541135,0.72437 -0.017205,0.22125 0.035204,0.29479 0.2810004,0.38834 l 0.4330698,0.16482 0.8641914,-2.27069 -0.4447744,-0.16928 c -0.2223872,-0.0846 -0.3265923,-0.0573 -0.4770025,0.12666 -0.1665694,0.19121 -0.2796837,0.24196 -0.4084342,0.19296 -0.058523,-0.0223 -0.1315459,-0.0769 -0.242478,-0.17269 l -0.5925697,-0.52032 1.0646482,-2.7974 0.8677086,0.009 c 0.067432,-0.001 0.1187051,0.005 0.1655235,0.0228 0.140455,0.0534 0.205705,0.19889 0.2029998,0.45246 -0.0083,0.19784 0.032409,0.26693 0.2313866,0.34266 l 0.515002,0.196 1.198286,-3.14853 -0.5852294,-0.22273 c -0.1755689,-0.0668 -0.272524,-0.0233 -0.4084342,0.19295 -0.1476149,0.21182 -0.3253659,0.29157 -0.658072,0.28555 l -8.2345841,-0.052 z"
           style="font-style:normal;font-variant:normal;font-weight:normal;font-stretch:normal;font-size:12.5236px;font-family:'Gloucester MT Std';-inkscape-font-specification:'Gloucester MT Std';fill:#ffffff;stroke-width:0.538251"
           id="path2955" />
        <path
           d="m 1.1195464,110.39541 0.4150371,0.30231 c 0.21258,0.15485 0.3525509,0.13285 0.5902522,-0.0658 0.3068123,-0.27232 0.4845253,-0.28232 0.7983338,-0.0537 l 4.8589708,3.53928 c 0.1417199,0.10323 0.2005823,0.19259 0.222577,0.33256 0.014621,0.1501 -0.00662,0.24308 -0.1016058,0.43728 -0.1217257,0.2522 -0.095107,0.36455 0.097228,0.50465 l 0.4352828,0.31706 1.6442922,-2.2574 -0.4555284,-0.3318 c -0.1417199,-0.10323 -0.2466981,-0.0867 -0.4622789,0.0816 -0.312311,0.23733 -0.5600094,0.25832 -0.8434494,0.0519 l -4.6261451,-3.36969 0.014747,-0.0202 7.3533317,2.24194 0.575133,-0.78958 -4.4867854,-6.30495 0.014747,-0.0202 4.7476194,3.45818 c 0.21258,0.15484 0.25382,0.41728 0.108099,0.74497 -0.111603,0.25957 -0.10248,0.37467 0.07973,0.50739 l 0.465651,0.33918 2.153065,-2.95587 -0.465651,-0.33918 c -0.161966,-0.11798 -0.266944,-0.10148 -0.489899,0.077 -0.327058,0.25757 -0.599626,0.29143 -0.852697,0.1071 l -4.7172511,-3.43606 c -0.1315971,-0.0958 -0.2539459,-0.24695 -0.2759407,-0.38692 -0.027494,-0.17496 -0.009,-0.28544 0.083235,-0.49714 0.1014801,-0.26695 0.074861,-0.3793 -0.1377188,-0.53414 l -0.4454057,-0.32444 -1.9244857,2.64207 3.6874575,5.21143 -0.014747,0.0202 -6.1280887,-1.86076 z"
           style="font-style:normal;font-variant:normal;font-weight:normal;font-stretch:normal;font-size:12.5236px;font-family:'Gloucester MT Std';-inkscape-font-specification:'Gloucester MT Std';fill:#ffffff;stroke-width:0.538251"
           id="path2957" />
        <path
           d="m 14.919565,98.976767 2.768854,1.678533 -1.782167,1.40077 z m -1.414978,-2.631164 -0.04429,0.146314 c -0.148307,0.642226 -0.252363,0.915162 -0.453464,1.32809 l 0.566291,0.335423 2.059921,6.32951 c 0.111909,0.40584 0.102791,0.55637 -0.0695,0.80329 -0.128691,0.18079 -0.121641,0.27083 0.04088,0.4776 l 0.286345,0.36431 1.910167,-1.50137 -0.294083,-0.37416 c -0.147042,-0.18708 -0.250446,-0.21731 -0.474113,-0.13708 -0.241251,0.0781 -0.364348,0.0634 -0.449477,-0.0449 -0.0387,-0.0492 -0.07318,-0.13364 -0.118921,-0.2729 l -0.239986,-0.75119 2.353247,-1.84963 0.739347,0.45427 c 0.05839,0.0338 0.09919,0.0654 0.130146,0.10479 0.09287,0.11815 0.0739,0.27642 -0.059,0.49238 -0.108998,0.16532 -0.109688,0.24551 0.02188,0.41289 l 0.340518,0.43324 2.648634,-2.08181 -0.386952,-0.49231 c -0.116086,-0.14769 -0.221597,-0.16033 -0.449478,-0.0449 -0.23562,0.10555 -0.429057,0.0824 -0.711149,-0.0941 l -7.031879,-4.285296 z"
           style="font-style:normal;font-variant:normal;font-weight:normal;font-stretch:normal;font-size:12.5236px;font-family:'Gloucester MT Std';-inkscape-font-specification:'Gloucester MT Std';fill:#ffffff;stroke-width:0.538251"
           id="path2959" />
        <path
           d="m 23.792302,100.3852 3.418029,-1.787631 -0.284396,-0.543777 c -0.09286,-0.17756 -0.194273,-0.209321 -0.473242,-0.148218 -0.412649,0.102753 -0.660368,0.03445 -0.805468,-0.24299 L 22.8555,92.324689 c -0.06384,-0.122072 -0.08432,-0.323359 -0.03668,-0.475472 0.05345,-0.141016 0.113716,-0.214937 0.290255,-0.363799 0.226733,-0.16098 0.263787,-0.279291 0.165119,-0.467948 l -0.237964,-0.454997 -3.451321,1.805044 0.278592,0.53268 c 0.07545,0.144268 0.182155,0.159127 0.433125,0.09853 0.462333,-0.142869 0.659347,-0.09045 0.862487,0.297968 l 2.727881,5.215822 c 0.121884,0.233048 0.09421,0.558448 -0.175384,0.826642 -0.220419,0.200077 -0.290766,0.335799 -0.18049,0.546652 z"
           style="font-style:normal;font-variant:normal;font-weight:normal;font-stretch:normal;font-size:12.5236px;font-family:'Gloucester MT Std';-inkscape-font-specification:'Gloucester MT Std';fill:#ffffff;stroke-width:0.538251"
           id="path2961" />
        <path
           d="m 27.889863,95.295599 0.864608,2.655558 0.535875,-0.174472 c 0.107175,-0.0349 0.163116,-0.105791 0.25949,-0.295217 0.104405,-0.205211 0.208257,-0.331219 0.339249,-0.373867 0.05954,-0.01939 0.178348,-0.01856 0.36445,-0.01329 0.684869,0.04043 1.457803,-0.05318 2.005586,-0.231526 1.667167,-0.542803 2.453668,-2.010578 1.938005,-3.594386 -0.255893,-0.78595 -0.648593,-1.263945 -1.335124,-1.633102 -0.220997,-0.112436 -0.398791,-0.173085 -0.529229,-0.20964 -0.410977,-0.129607 -1.230437,-0.178899 -2.086176,-0.137356 -0.630034,0.04708 -1.231821,0.01911 -1.504606,-0.05012 -0.154254,-0.0288 -0.34368,-0.125176 -0.458056,-0.193302 -0.157578,-0.119914 -0.275277,-0.279153 -0.337312,-0.469686 -0.182227,-0.559692 0.241764,-1.158711 0.980081,-1.399095 0.797858,-0.25977 1.60458,-0.08779 2.313266,0.511222 0.283586,0.223765 0.410146,0.248413 0.779305,0.12822 l 0.250075,-0.08142 -0.775433,-2.381667 -0.250075,0.08142 c -0.119084,0.03877 -0.202719,0.105514 -0.334541,0.266969 -0.16367,0.184995 -0.271122,0.259492 -0.42593,0.309895 -0.130992,0.04265 -0.269738,0.06148 -0.586555,0.05927 -0.590156,0.0078 -0.982577,0.0565 -1.411277,0.196076 -0.78595,0.255893 -1.319609,0.679887 -1.616762,1.26395 -0.289122,0.568278 -0.342016,1.336228 -0.140403,1.955462 0.240384,0.738316 0.763245,1.292468 1.50184,1.578821 0.501536,0.205486 1.273363,0.270288 2.295542,0.214067 0.566615,-0.0396 1.136831,-0.0277 1.409615,0.04154 0.114653,0.02852 0.264754,0.08502 0.383006,0.165054 0.2642,0.164224 0.464427,0.415129 0.557479,0.700929 0.240384,0.738317 -0.172252,1.412663 -1.053469,1.699573 -0.940758,0.306296 -1.937459,0.11715 -2.816186,-0.518698 -0.311279,-0.227919 -0.449471,-0.288291 -0.628096,-0.230134 z"
           style="font-style:normal;font-variant:normal;font-weight:normal;font-stretch:normal;font-size:12.5236px;font-family:'Gloucester MT Std';-inkscape-font-specification:'Gloucester MT Std';fill:#ffffff;stroke-width:0.538251"
           id="path2963" />
        <path
           d="m 44.157712,88.640437 1.116087,3.039469 -2.266705,-0.0176 z m 0.536298,-2.938974 -0.125913,0.08669 c -0.516661,0.409281 -0.768292,0.557615 -1.183114,0.754779 l 0.233178,0.615485 -2.340263,6.231304 c -0.165816,0.386956 -0.266877,0.498887 -0.555591,0.584314 -0.213382,0.06096 -0.264058,0.135714 -0.266099,0.398702 l -0.0036,0.46336 2.429507,0.01886 0.0037,-0.475883 c 0.0018,-0.237942 -0.06009,-0.326091 -0.284923,-0.40298 -0.237261,-0.08951 -0.324243,-0.177853 -0.323174,-0.315608 4.86e-4,-0.06262 0.02621,-0.150085 0.07738,-0.287451 l 0.281246,-0.736732 2.993053,0.02323 0.294239,0.816344 c 0.02456,0.06281 0.0367,0.113 0.03631,0.163093 -0.0012,0.150279 -0.114751,0.262113 -0.353373,0.347929 -0.188334,0.06116 -0.238913,0.123385 -0.240566,0.33628 l -0.0043,0.551022 3.36875,0.02615 0.0049,-0.626162 c 0.0015,-0.187849 -0.0731,-0.263571 -0.323174,-0.315609 -0.249978,-0.06456 -0.386664,-0.203385 -0.496943,-0.517341 l -2.820459,-7.736672 z"
           style="font-style:normal;font-variant:normal;font-weight:normal;font-stretch:normal;font-size:12.5236px;font-family:'Gloucester MT Std';-inkscape-font-specification:'Gloucester MT Std';fill:#ffffff;stroke-width:0.538251"
           id="path2965" />
        <path
           d="m 54.868752,88.019895 1.1896,0.301912 c 0.946825,0.240297 1.381611,0.970833 1.147475,1.89338 -0.246458,0.971102 -0.955429,1.320917 -2.096475,1.031328 l -0.995379,-0.25262 z m -2.521183,-1.673509 -0.101664,0.400579 c -0.08318,0.327747 -0.04713,0.440261 0.222818,0.547534 0.394234,0.177578 0.48463,0.381409 0.367563,0.842682 l -1.460267,5.753781 c -0.03389,0.133527 -0.12847,0.25165 -0.265446,0.333172 -0.133895,0.06938 -0.21597,0.08732 -0.419432,0.07444 -0.282457,-0.0071 -0.367797,0.07462 -0.438654,0.353816 l -0.117067,0.461274 3.653772,0.9273 0.113987,-0.449135 c 0.08626,-0.339885 0.04713,-0.44026 -0.225715,-0.587031 -0.366876,-0.183555 -0.475388,-0.417824 -0.379885,-0.794127 l 0.557612,-2.197118 0.449135,0.113987 c 0.412718,0.104745 0.530289,0.354234 0.835316,1.697871 0.218448,0.921124 0.464439,1.784634 0.785975,2.757762 l 2.184979,0.554532 0.129391,-0.509829 c 0.05237,-0.206359 0.0071,-0.282457 -0.165573,-0.41672 -0.175736,-0.122124 -0.248384,-0.192244 -0.351104,-0.34752 -0.03007,-0.08516 -0.05724,-0.130814 -0.0663,-0.146034 -0.105431,-0.246409 -0.207414,-0.608228 -0.321167,-1.076399 -0.212471,-0.893766 -0.425862,-1.529352 -0.706109,-2.156064 0.595352,-0.004 0.877993,-0.04851 1.270435,-0.22024 0.657152,-0.298363 1.1056,-0.843503 1.284282,-1.547552 0.366607,-1.444515 -0.658241,-2.802869 -2.466919,-3.261898 z"
           style="font-style:normal;font-variant:normal;font-weight:normal;font-stretch:normal;font-size:12.5236px;font-family:'Gloucester MT Std';-inkscape-font-specification:'Gloucester MT Std';fill:#ffffff;stroke-width:0.538251"
           id="path2967" />
        <path
           d="m 65.735876,91.871132 1.087465,0.568965 c 0.865533,0.452849 1.119492,1.264161 0.678254,2.107501 -0.464461,0.887726 -1.235132,1.064009 -2.27821,0.518268 l -0.90992,-0.476073 z m -2.065558,-2.211439 -0.19159,0.366187 c -0.156756,0.299608 -0.147719,0.417409 0.09009,0.584231 0.342449,0.263976 0.383231,0.483191 0.162612,0.904861 l -2.75193,5.259777 c -0.06386,0.122062 -0.183209,0.215096 -0.33533,0.262713 -0.146316,0.03652 -0.230312,0.03498 -0.425275,-0.02463 -0.273153,-0.07224 -0.375082,-0.0125 -0.508615,0.242721 l -0.220619,0.42167 3.34007,1.747533 0.214813,-0.410573 c 0.162561,-0.310704 0.147719,-0.417409 -0.08376,-0.623327 -0.31445,-0.26346 -0.365813,-0.51648 -0.185835,-0.860474 l 1.050843,-2.00848 0.410573,0.214813 c 0.377284,0.197396 0.433938,0.467318 0.419802,1.84507 -6.06e-4,0.946673 0.03891,1.843668 0.126566,2.864781 l 1.997384,1.04504 0.243842,-0.46606 c 0.0987,-0.18864 0.07224,-0.27315 -0.06466,-0.44372 -0.142711,-0.15947 -0.197164,-0.2445 -0.261169,-0.41932 -0.0096,-0.0898 -0.02542,-0.14051 -0.03072,-0.15742 -0.04556,-0.264113 -0.06106,-0.639711 -0.0634,-1.121498 9.1e-5,-0.918673 -0.06045,-1.586386 -0.188087,-2.260935 0.580112,0.133906 0.865392,0.155958 1.28692,0.07968 0.708354,-0.138217 1.270765,-0.564804 1.607499,-1.208406 0.690885,-1.320492 0.0081,-2.879112 -1.645252,-3.74417 z"
           style="font-style:normal;font-variant:normal;font-weight:normal;font-stretch:normal;font-size:12.5236px;font-family:'Gloucester MT Std';-inkscape-font-specification:'Gloucester MT Std';fill:#ffffff;stroke-width:0.538251"
           id="path2969" />
        <path
           d="m 67.986763,102.52418 3.03167,2.38485 0.379408,-0.48231 c 0.123889,-0.15749 0.111288,-0.26301 -0.0588,-0.49241 -0.262878,-0.33427 -0.302122,-0.58821 -0.108546,-0.83429 l 3.724398,-4.734525 c 0.08517,-0.108274 0.260377,-0.209462 0.418652,-0.228362 0.150532,-0.0091 0.242663,0.01561 0.450811,0.115617 0.239777,0.140817 0.362879,0.126117 0.494511,-0.04122 l 0.317464,-0.403566 -3.061199,-2.408083 -0.371665,0.472468 c -0.10066,0.12796 -0.07047,0.231377 0.08767,0.435453 0.319836,0.363137 0.35278,0.564327 0.08177,0.908835 l -3.639225,4.626249 c -0.162604,0.20671 -0.470753,0.31485 -0.82589,0.17889 -0.272849,-0.11903 -0.425481,-0.12756 -0.572599,0.0595 z"
           style="font-style:normal;font-variant:normal;font-weight:normal;font-stretch:normal;font-size:12.5236px;font-family:'Gloucester MT Std';-inkscape-font-specification:'Gloucester MT Std';fill:#ffffff;stroke-width:0.538251"
           id="path2971" />
        <path
           d="m 78.996638,99.831884 -0.320227,0.280646 c -0.227207,0.21578 -0.242446,0.3124 -0.09852,0.55262 0.271334,0.46161 0.212601,0.67961 -0.343087,1.16661 l -4.115857,3.60714 c -0.367319,0.32192 -0.554629,0.33621 -0.917714,0.0549 -0.245196,-0.18477 -0.378324,-0.18466 -0.594948,0.005 l -0.386156,0.33843 4.977359,5.67931 1.723573,-1.51054 -0.247629,-0.28255 c -0.222867,-0.2543 -0.363085,-0.28129 -0.666909,-0.11493 -0.524045,0.2761 -0.865754,0.20921 -1.270216,-0.25229 l -1.799443,-2.05322 2.298099,-2.01405 0.619074,0.70638 c 0.198104,0.22604 0.259482,0.37208 0.246677,0.56648 -0.0058,0.0884 -0.02699,0.14022 -0.07048,0.2616 -0.138737,0.35473 -0.124451,0.54204 0.05714,0.74924 l 0.231121,0.26372 1.921361,-1.68389 -0.239376,-0.27313 c -0.132069,-0.15069 -0.280541,-0.1871 -0.593889,-0.14562 -0.321602,0.0321 -0.451237,-0.0208 -0.690613,-0.29398 l -0.718126,-0.8194 2.203914,-1.93152 1.312438,1.49754 c 0.404462,0.4615 0.478962,0.81252 0.321493,1.31688 -0.110482,0.32996 -0.102122,0.47251 0.09598,0.69855 l 0.198104,0.22605 1.619971,-1.41975 -0.123815,-0.14128 c -0.01651,-0.0188 -0.09196,-0.0859 -0.168579,-0.13535 -0.312394,-0.24244 -0.605952,-0.5014 -0.762784,-0.68035 z"
           style="font-style:normal;font-variant:normal;font-weight:normal;font-stretch:normal;font-size:12.5236px;font-family:'Gloucester MT Std';-inkscape-font-specification:'Gloucester MT Std';fill:#ffffff;stroke-width:0.538251"
           id="path2973" />
        <path
           d="m 86.512144,111.51553 0.574614,1.08449 c 0.457345,0.86316 0.207609,1.67579 -0.633424,2.12141 -0.885298,0.46907 -1.620457,0.17829 -2.171616,-0.86194 l -0.480799,-0.90743 z m -0.451557,-2.99217 -0.365185,0.19349 c -0.298789,0.15831 -0.358001,0.26055 -0.256342,0.53266 0.132958,0.41144 0.04253,0.61525 -0.377988,0.83806 l -5.245391,2.77925 c -0.121729,0.0645 -0.272774,0.0737 -0.425141,0.0268 -0.1413,-0.0527 -0.209679,-0.10149 -0.336692,-0.26096 -0.184326,-0.21414 -0.302173,-0.22257 -0.556696,-0.0877 l -0.420517,0.22281 1.764884,3.33093 0.40945,-0.21694 c 0.309854,-0.16418 0.358001,-0.26055 0.283677,-0.56132 -0.110165,-0.39517 -0.0093,-0.63284 0.333723,-0.81461 l 2.002987,-1.06127 0.216946,0.40945 c 0.199355,0.37625 0.09332,0.63086 -0.698003,1.75878 -0.536218,0.78017 -1.011242,1.54208 -1.516822,2.43357 l 1.055413,1.99192 0.464781,-0.24626 c 0.188126,-0.0997 0.21414,-0.18433 0.197789,-0.40243 -0.02742,-0.21224 -0.0242,-0.31316 0.02197,-0.49352 0.04294,-0.0795 0.05855,-0.13024 0.06376,-0.14717 0.111902,-0.24353 0.311673,-0.56198 0.582383,-0.96052 0.519949,-0.75738 0.847891,-1.34215 1.124383,-1.97053 0.402511,0.43869 0.625238,0.61831 1.015941,0.79396 0.662237,0.2869 1.367336,0.25346 2.009177,-0.0866 1.316881,-0.69774 1.63599,-2.36915 0.762343,-4.01802 z"
           style="font-style:normal;font-variant:normal;font-weight:normal;font-stretch:normal;font-size:12.5236px;font-family:'Gloucester MT Std';-inkscape-font-specification:'Gloucester MT Std';fill:#ffffff;stroke-width:0.538251"
           id="path2975" />
        <path
           d="m 91.195004,119.14762 -0.411475,0.10953 c -0.299334,0.0926 -0.35584,0.17248 -0.333377,0.45161 0.03848,0.53406 -0.110835,0.70341 -0.824865,0.89347 L 84.336628,122.01 c -0.471986,0.12564 -0.646205,0.0554 -0.846893,-0.35775 -0.137825,-0.27435 -0.257193,-0.33329 -0.535543,-0.2592 l -0.49619,0.13208 1.942529,7.29763 2.214702,-0.58953 -0.09664,-0.36306 c -0.08698,-0.32676 -0.200688,-0.41313 -0.546776,-0.39877 -0.592137,0.0151 -0.868746,-0.19642 -1.026596,-0.78943 l -0.702275,-2.63828 2.952936,-0.78603 0.241608,0.90767 c 0.07731,0.29045 0.06756,0.44856 -0.03012,0.61712 -0.0444,0.0766 -0.08637,0.11371 -0.179182,0.20321 -0.281659,0.25641 -0.351922,0.43063 -0.28105,0.69688 l 0.0902,0.33886 2.468848,-0.65717 -0.09342,-0.35096 c -0.05154,-0.19364 -0.168473,-0.29211 -0.467719,-0.39389 -0.302468,-0.11388 -0.395194,-0.2188 -0.488615,-0.56976 l -0.280266,-1.05289 2.831914,-0.75382 0.512209,1.92425 c 0.157851,0.59301 0.06896,0.94066 -0.295851,1.32288 -0.245353,0.24675 -0.301075,0.37822 -0.22376,0.66867 l 0.07731,0.29045 2.081578,-0.55409 -0.04832,-0.18153 c -0.0064,-0.0242 -0.04432,-0.1178 -0.09107,-0.19607 -0.172478,-0.35584 -0.320751,-0.71812 -0.381959,-0.94807 z"
           style="font-style:normal;font-variant:normal;font-weight:normal;font-stretch:normal;font-size:12.5236px;font-family:'Gloucester MT Std';-inkscape-font-specification:'Gloucester MT Std';fill:#ffffff;stroke-width:0.538251"
           id="path2977" />
      </g>
      <g
         aria-label="NEVER BEHIND"
         id="text2860"
         style="font-style:normal;font-variant:normal;font-weight:normal;font-stretch:normal;font-size:12.5236px;line-height:1.25;font-family:'Gloucester MT Std';-inkscape-font-specification:'Gloucester MT Std';text-align:center;letter-spacing:2.64583px;word-spacing:0px;text-anchor:middle;fill:#ffffff;stroke-width:0.538251">
        <path
           d="m -2.0486662,151.20182 1.13065613,2.71719 0.43937584,-0.18283 c 0.23125044,-0.0962 0.2900715,-0.21565 0.24591528,-0.54996 -0.0518389,-0.38536 0.035927,-0.59822 0.34811504,-0.72813 l 4.50457231,-1.88797 0.032748,0.0135 -4.31978739,6.34164 0.44263984,1.06375 6.97220075,-2.90121 c 0.3353131,-0.13953 0.4894288,-0.0951 0.740702,0.24793 0.2040916,0.29488 0.3533959,0.32771 0.665584,0.1978 l 0.3468756,-0.14434 -1.1643352,-2.79813 -0.3815632,0.15877 c -0.2775005,0.11547 -0.3565753,0.28402 -0.2979851,0.65302 0.048967,0.34586 -0.032047,0.54235 -0.2584863,0.65014 l -3.8965699,1.62141 -0.00962,-0.0231 3.7953631,-5.58084 -0.9766944,-2.34719 -0.5434385,0.22613 c -0.2312505,0.0962 -0.2833203,0.19928 -0.205408,0.45172 0.1029003,0.37768 0.03632,0.60885 -0.2989936,0.74838 l -5.56157303,2.31424 c -0.3169994,0.11834 -0.49036025,0.0277 -0.75707577,-0.25469 -0.2310965,-0.22938 -0.3225882,-0.28626 -0.5422761,-0.19485 z"
           id="path2980" />
        <path
           d="m 10.022118,156.22925 -0.3476669,0.24584 c -0.2484066,0.19099 -0.2736071,0.2855 -0.1554383,0.53938 0.2218767,0.48731 0.1407993,0.69803 -0.4625044,1.12463 l -4.4685374,3.15972 c -0.3987939,0.28199 -0.5865742,0.27672 -0.9184502,-0.0408 -0.2246592,-0.20926 -0.3570765,-0.22299 -0.5922627,-0.0567 l -0.4192449,0.29645 4.3599853,6.16597 1.8712639,-1.32318 -0.2169147,-0.30677 c -0.1952232,-0.27609 -0.331876,-0.3175 -0.651347,-0.18363 -0.5499078,0.22012 -0.8828118,0.11808 -1.2371058,-0.38297 l -1.5762468,-2.22916 2.4950186,-1.76424 0.5422867,0.76692 c 0.1735318,0.24541 0.2193957,0.39703 0.1864508,0.58905 -0.014975,0.0873 -0.041416,0.13665 -0.097293,0.25286 -0.1748613,0.33838 -0.1801248,0.52616 -0.021054,0.75112 l 0.2024537,0.28631 2.085999,-1.47502 -0.209684,-0.29654 c -0.115688,-0.16361 -0.259571,-0.21525 -0.5755332,-0.20656 -0.3231926,-0.002 -0.4466249,-0.0677 -0.6563091,-0.36419 l -0.6290526,-0.88962 2.3927639,-1.69193 1.149648,1.62585 c 0.354294,0.50105 0.391899,0.85791 0.182852,1.34317 -0.144184,0.31669 -0.150688,0.45933 0.02284,0.70475 l 0.173532,0.24541 1.758784,-1.24365 -0.108458,-0.15338 c -0.01446,-0.0204 -0.08253,-0.095 -0.153594,-0.15214 -0.285499,-0.27361 -0.550546,-0.56168 -0.687925,-0.75596 z"
           id="path2982" />
        <path
           d="m 15.161972,163.28926 -0.317823,0.35421 c -0.150548,0.16779 -0.161531,0.29254 -0.03365,0.52507 0.05044,0.11256 0.07004,0.14697 0.08415,0.24376 0.0067,0.1238 -0.02388,0.21414 -0.12782,0.42374 -0.0074,0.027 -0.01577,0.0363 -0.02413,0.0456 l -0.01481,0.054 -3.236928,7.20799 0.960101,0.86146 6.72599,-4.02687 c 0.171106,-0.11569 0.319036,-0.16804 0.451195,-0.18406 0.133118,0.002 0.178767,0.0258 0.3334,0.0972 0.23661,0.11135 0.359448,0.087 0.551815,-0.12743 l 0.334551,-0.37285 -1.920201,-1.72294 -0.326187,0.36353 c -0.167276,0.18643 -0.178258,0.31118 -0.04942,0.56139 0.111153,0.25117 0.116899,0.35728 -0.01692,0.50642 -0.05018,0.0559 -0.09296,0.0848 -0.144099,0.1231 l -4.200009,2.52435 -0.01864,-0.0167 1.985355,-4.44419 c 0.03895,-0.0997 0.09653,-0.1826 0.146718,-0.23852 0.07527,-0.0839 0.144099,-0.1231 0.232525,-0.12789 0.141481,-0.008 0.213179,0.006 0.36877,0.0953 0.228246,0.12067 0.325035,0.10656 0.517402,-0.10783 l 0.292732,-0.32625 z"
           id="path2984" />
        <path
           d="m 21.807358,169.03479 -0.209195,0.37087 c -0.142913,0.27885 -0.12529,0.37506 0.09007,0.55406 0.408912,0.34568 0.425699,0.57082 0.06268,1.21439 l -2.688779,4.76678 c -0.239959,0.42541 -0.411965,0.50093 -0.847721,0.35578 -0.292555,-0.0931 -0.418133,-0.0489 -0.559647,0.20195 l -0.252266,0.44723 6.577497,3.71015 1.125964,-1.99616 -0.327239,-0.18458 c -0.294514,-0.16613 -0.435756,-0.14515 -0.667329,0.11245 -0.403017,0.43408 -0.74759,0.48416 -1.28208,0.18267 l -2.377934,-1.34131 1.501286,-2.66155 0.818097,0.46147 c 0.261791,0.14766 0.368075,0.26513 0.420382,0.4528 0.02377,0.0853 0.02098,0.14124 0.02014,0.27017 -0.01342,0.38066 0.0621,0.55266 0.30208,0.68803 l 0.305423,0.17227 1.255173,-2.22522 -0.31633,-0.17843 c -0.174528,-0.0985 -0.326677,-0.0836 -0.608597,0.0593 -0.292829,0.13677 -0.432672,0.12979 -0.749003,-0.0486 l -0.948992,-0.5353 1.439758,-2.55246 1.734365,0.9783 c 0.53449,0.30148 0.721049,0.60802 0.739523,1.13606 0.005,0.34793 0.06015,0.47967 0.321936,0.62733 l 0.261791,0.14767 1.058284,-1.87617 -0.163619,-0.0923 c -0.02182,-0.0123 -0.115233,-0.0506 -0.203894,-0.0719 -0.375063,-0.12529 -0.737821,-0.2724 -0.945072,-0.3893 z"
           id="path2986" />
        <path
           d="m 31.883194,175.03418 1.174471,0.35625 c 0.934784,0.28355 1.335545,1.03329 1.05927,1.9441 -0.290816,0.95875 -1.01511,1.27563 -2.141644,0.93392 l -0.982721,-0.29809 z m -2.441627,-1.78758 -0.119962,0.39549 c -0.09815,0.32358 -0.06731,0.43763 0.197426,0.55719 0.385658,0.19551 0.466594,0.40327 0.328456,0.85868 l -1.723085,5.68061 c -0.03999,0.13183 -0.139896,0.24548 -0.280473,0.32062 -0.136941,0.0632 -0.219753,0.0773 -0.422409,0.0551 -0.281833,-0.02 -0.370836,0.0576 -0.454446,0.33329 l -0.138137,0.45541 3.607304,1.09419 0.134503,-0.44342 c 0.101785,-0.33556 0.06731,-0.43763 -0.198505,-0.59678 -0.358054,-0.20022 -0.455688,-0.43923 -0.342997,-0.81074 l 0.657971,-2.16918 0.443423,0.1345 c 0.40747,0.1236 0.513453,0.37823 0.756423,1.73446 0.175896,0.93018 0.381952,1.80408 0.658437,2.79096 l 2.157192,0.65433 0.152678,-0.50334 c 0.0618,-0.20374 0.02005,-0.28183 -0.146251,-0.42389 -0.169939,-0.13007 -0.239289,-0.20345 -0.334766,-0.36328 -0.02613,-0.0864 -0.05117,-0.13331 -0.05952,-0.14893 -0.094,-0.25099 -0.17925,-0.61711 -0.271372,-1.09002 -0.171182,-0.90258 -0.355145,-1.5473 -0.606301,-2.18622 0.594905,0.0234 0.879294,-0.008 1.279212,-0.16164 0.670165,-0.26786 1.143186,-0.79181 1.354027,-1.48691 0.432589,-1.42614 -0.528765,-2.83015 -2.314441,-3.37179 z"
           id="path2988" />
        <path
           d="m 45.73857,177.14017 1.113132,-0.0572 c 0.988062,-0.0508 1.591017,0.45749 1.637278,1.358 0.05076,0.98806 -0.487646,1.49224 -1.6383,1.55135 l -0.963047,0.0495 z m 0.202391,3.93974 1.188176,-0.061 c 1.175668,-0.0604 1.828008,0.43278 1.879409,1.43334 0.05204,1.01308 -0.497582,1.54292 -1.648236,1.60203 l -1.263218,0.0649 z m -3.217976,-4.78803 0.0212,0.41273 c 0.01542,0.30017 0.108753,0.40824 0.425286,0.46722 0.252712,0.0372 0.381638,0.10579 0.48812,0.22572 0.119632,0.1318 0.137922,0.24372 0.162337,0.71899 l 0.291058,5.66572 c 0.01028,0.20011 -0.02274,0.28959 -0.141389,0.42109 -0.09556,0.0927 -0.169317,0.12156 -0.354996,0.16872 -0.308823,0.0911 -0.441261,0.19823 -0.431623,0.38583 l 0.02956,0.57533 4.727687,-0.24287 c 1.150654,-0.0591 2.035745,-0.40554 2.606531,-1.01171 0.367802,-0.40764 0.564659,-0.96952 0.537031,-1.50732 -0.03213,-0.62536 -0.364421,-1.23529 -0.900343,-1.65921 -0.418861,-0.34214 -0.789919,-0.4861 -1.522399,-0.58641 l -0.0013,-0.025 c 0.604495,-0.19407 0.860719,-0.33264 1.172411,-0.61199 0.442846,-0.41149 0.677867,-0.96279 0.647026,-1.56313 -0.06682,-1.30074 -1.277528,-2.16652 -2.915959,-2.08235 z"
           id="path2990" />
        <path
           d="m 51.988122,175.63766 0.115306,0.4099 c 0.09684,0.298 0.177466,0.35337 0.456256,0.32699 0.533469,-0.046 0.704896,0.10093 0.904987,0.81221 l 1.482024,5.26833 c 0.132263,0.47017 0.06446,0.64536 -0.345806,0.85184 -0.27238,0.14167 -0.329638,0.26186 -0.251637,0.53914 l 0.139046,0.49428 7.26957,-2.04499 -0.620619,-2.20619 -0.36167,0.10174 c -0.325503,0.0916 -0.410265,0.20648 -0.391032,0.55233 0.02339,0.59187 -0.184182,0.87142 -0.77491,1.0376 l -2.628136,0.73932 -0.827492,-2.94159 0.904175,-0.25435 c 0.289337,-0.0814 0.44757,-0.0739 0.617487,0.0214 0.07724,0.0433 0.114912,0.0848 0.205713,0.17631 0.260346,0.27802 0.435536,0.34583 0.700761,0.27122 l 0.337559,-0.095 -0.691838,-2.45936 -0.349614,0.0984 c -0.192891,0.0543 -0.289708,0.17257 -0.387269,0.47321 -0.109616,0.30404 -0.213216,0.39824 -0.562831,0.49658 l -1.048843,0.29505 -0.793578,-2.82102 1.916851,-0.53923 c 0.590728,-0.16618 0.939599,-0.0822 1.326913,0.27721 0.250172,0.24186 0.382412,0.29573 0.671749,0.21433 l 0.289336,-0.0814 -0.583314,-2.07357 -0.180835,0.0509 c -0.02411,0.007 -0.117166,0.046 -0.194773,0.0938 -0.353377,0.17746 -0.713538,0.33082 -0.942595,0.39525 z"
           id="path2992" />
        <path
           d="m 60.380633,173.21781 0.245775,0.45083 c 0.124891,0.20292 0.215836,0.23892 0.47672,0.16802 0.487786,-0.15182 0.65368,-0.0568 1.019344,0.61391 l 2.643572,4.84913 c 0.191824,0.35186 0.138797,0.59473 -0.1771,0.85253 -0.217929,0.17586 -0.241942,0.2888 -0.110063,0.5307 l 0.251768,0.46182 3.375697,-1.84031 -0.233786,-0.42883 c -0.142874,-0.23591 -0.25081,-0.27692 -0.567665,-0.20402 -0.466788,0.11184 -0.660669,0.0178 -0.894454,-0.41099 l -1.090998,-2.00123 2.737943,-1.49263 1.144948,2.10019 c 0.113895,0.20892 0.134859,0.32586 0.09084,0.50676 -0.073,0.15391 -0.109993,0.21687 -0.267942,0.34577 -0.260918,0.22782 -0.288939,0.38574 -0.133082,0.67162 l 0.203813,0.37386 3.397687,-1.8523 -0.29373,-0.53879 c -0.101906,-0.18693 -0.231834,-0.21594 -0.514709,-0.13305 -0.404821,0.12085 -0.575717,0.0428 -0.779529,-0.331 l -2.883352,-5.28896 c -0.05395,-0.099 -0.06991,-0.2329 -0.0299,-0.36882 0.046,-0.12493 0.09999,-0.18289 0.263933,-0.30079 0.23992,-0.18785 0.274929,-0.30678 0.137055,-0.55968 l -0.22779,-0.41784 -3.408684,1.85829 0.257763,0.47282 c 0.107901,0.19792 0.209843,0.22793 0.486723,0.13404 0.464801,-0.16781 0.703658,-0.0698 0.955427,0.39201 l 1.096992,2.01223 -2.737942,1.49263 -1.216883,-2.23214 c -0.05395,-0.099 -0.0659,-0.27788 -0.03689,-0.4078 0.06101,-0.1759 0.114001,-0.26184 0.304937,-0.40873 0.212927,-0.15887 0.242935,-0.26081 0.129039,-0.46973 L 63.75633,171.3775 Z"
           id="path2994" />
        <path
           d="m 74.938667,174.95187 2.971566,-2.45933 -0.391257,-0.47275 c -0.127758,-0.15437 -0.233555,-0.16435 -0.493718,-0.0466 -0.382261,0.18632 -0.638768,0.17102 -0.838389,-0.0702 l -3.840711,-4.64066 c -0.08783,-0.10613 -0.149718,-0.29876 -0.13475,-0.45745 0.02295,-0.14905 0.06653,-0.23389 0.208257,-0.4162 0.188301,-0.20461 0.199942,-0.32804 0.0642,-0.49206 l -0.327379,-0.39556 -3.00051,2.48328 0.383273,0.4631 c 0.103803,0.12543 0.211262,0.11777 0.444145,0.006 0.422516,-0.23589 0.626125,-0.22558 0.905594,0.11209 l 3.752877,4.53454 c 0.167682,0.2026 0.208277,0.52665 3.51e-4,0.84504 -0.173994,0.24154 -0.214579,0.38892 -0.06287,0.57223 z"
           id="path2996" />
        <path
           d="m 80.192512,170.46401 1.868685,-2.27366 -0.367655,-0.30217 c -0.193503,-0.15904 -0.326568,-0.15493 -0.601042,0.041 -0.315957,0.22664 -0.545108,0.24905 -0.806337,0.0344 l -3.781261,-3.09155 -0.0034,-0.0353 7.627224,0.83813 0.731571,-0.89011 -5.834117,-4.79497 c -0.280579,-0.23061 -0.313716,-0.38753 -0.128706,-0.77042 0.164601,-0.31862 0.123512,-0.46586 -0.137717,-0.68056 l -0.290254,-0.23856 -1.924349,2.34139 0.31928,0.26241 c 0.232204,0.19085 0.418149,0.18157 0.716479,-0.0434 0.282426,-0.20557 0.49395,-0.22625 0.695405,-0.0769 l 3.260526,2.67977 -0.0159,0.0194 -6.70929,-0.73212 -1.614226,1.96406 0.454732,0.37374 c 0.193503,0.15903 0.30894,0.15665 0.495279,-0.0306 0.285208,-0.26812 0.520588,-0.31783 0.801167,-0.0872 l 4.653749,3.82484 c 0.253277,0.22437 0.254606,0.42 0.130429,0.78805 -0.09409,0.31172 -0.10138,0.4192 0.08245,0.57029 z"
           id="path2998" />
        <path
           d="m 81.137041,155.45394 0.494265,-1.01297 c 0.75238,-1.54197 2.172833,-1.76858 4.390115,-0.68669 2.003432,0.97754 2.630618,2.11966 1.933156,3.54908 l -0.582134,1.19305 z m -2.225035,2.16116 0.528996,0.25811 c 0.196831,0.0821 0.280566,0.0533 0.446407,-0.17235 0.276764,-0.33875 0.539225,-0.41971 0.876882,-0.25495 l 5.289962,2.58116 c 0.21385,0.10434 0.292908,0.17079 0.350542,0.33826 0.04062,0.14523 0.03594,0.24049 -0.0124,0.4538 -0.08129,0.28083 -0.03545,0.38681 0.178395,0.49115 l 0.49523,0.24164 1.971566,-4.04063 c 0.494264,-1.01297 0.583612,-2.19564 0.243571,-3.18372 -0.368859,-1.07181 -1.2006,-1.9375 -2.427421,-2.53611 -2.397365,-1.16976 -4.866305,-0.47929 -5.915244,1.67046 z"
           id="path3000" />
      </g>
      <g
         id="g2913"
         transform="matrix(0.92688969,0,0,0.92688969,5.6719568,6.4209774)">
        <path
           style="fill:none;stroke:#efb013;stroke-width:2.065;stroke-linecap:butt;stroke-linejoin:miter;stroke-miterlimit:4;stroke-dasharray:none;stroke-opacity:1"
           d="m 42.072752,98.876165 0.0174,80.998535"
           id="path2866" />
        <path
           style="fill:none;stroke:#efb013;stroke-width:2.065;stroke-linecap:butt;stroke-linejoin:miter;stroke-miterlimit:4;stroke-dasharray:none;stroke-opacity:1"
           d="m 66.570322,175.21768 -24.4889,-36.08963"
           id="path2868"
           sodipodi:nodetypes="cc" />
        <path
           style="fill:none;stroke:#efb013;stroke-width:2.065;stroke-linecap:butt;stroke-linejoin:miter;stroke-miterlimit:4;stroke-dasharray:none;stroke-opacity:1"
           d="m 42.081422,139.69896 37.659897,16.67911"
           id="path2870"
           sodipodi:nodetypes="cc" />
        <path
           style="fill:none;stroke:#efb013;stroke-width:2.065;stroke-linecap:butt;stroke-linejoin:miter;stroke-miterlimit:4;stroke-dasharray:none;stroke-opacity:1"
           d="m 42.081422,139.12805 40.229041,0"
           id="path2872"
           sodipodi:nodetypes="cc" />
        <path
           style="fill:none;stroke:#efb013;stroke-width:2.065;stroke-linecap:butt;stroke-linejoin:miter;stroke-miterlimit:4;stroke-dasharray:none;stroke-opacity:1"
           d="m 66.570322,103.60933 -24.4889,35.51872"
           id="path2884"
           sodipodi:nodetypes="cc" />
        <path
           style="fill:none;stroke:#efb013;stroke-width:2.065;stroke-linecap:butt;stroke-linejoin:miter;stroke-miterlimit:4;stroke-dasharray:none;stroke-opacity:1"
           d="M 42.081422,139.12805 79.551718,121.87803"
           id="path2886"
           sodipodi:nodetypes="cc" />
        <path
           style="fill:none;stroke:#efb013;stroke-width:2.065;stroke-linecap:butt;stroke-linejoin:miter;stroke-miterlimit:4;stroke-dasharray:none;stroke-opacity:1"
           d="m 17.592582,175.21768 24.4889,-36.08963"
           id="path2892"
           sodipodi:nodetypes="cc" />
        <path
           style="fill:none;stroke:#efb013;stroke-width:2.065;stroke-linecap:butt;stroke-linejoin:miter;stroke-miterlimit:4;stroke-dasharray:none;stroke-opacity:1"
           d="M 42.081482,139.69896 4.4215891,156.37807"
           id="path2894"
           sodipodi:nodetypes="cc" />
        <path
           style="fill:none;stroke:#efb013;stroke-width:2.065;stroke-linecap:butt;stroke-linejoin:miter;stroke-miterlimit:4;stroke-dasharray:none;stroke-opacity:1"
           d="m 42.081482,139.12805 -40.2290373,0"
           id="path2896"
           sodipodi:nodetypes="cc" />
        <path
           style="fill:none;stroke:#efb013;stroke-width:2.065;stroke-linecap:butt;stroke-linejoin:miter;stroke-miterlimit:4;stroke-dasharray:none;stroke-opacity:1"
           d="m 17.592582,103.60933 24.4889,35.51872"
           id="path2898"
           sodipodi:nodetypes="cc" />
        <path
           style="fill:none;stroke:#efb013;stroke-width:2.065;stroke-linecap:butt;stroke-linejoin:miter;stroke-miterlimit:4;stroke-dasharray:none;stroke-opacity:1"
           d="M 42.081482,139.12805 4.61119,121.87803"
           id="path2900"
           sodipodi:nodetypes="cc" />
      </g>
      <circle
         style="fill:#efb013;fill-opacity:1;stroke:none;stroke-width:1.05101;stroke-linejoin:round;stroke-miterlimit:4;stroke-dasharray:none;stroke-opacity:1"
         id="circle2703-7"
         cx="44.676823"
         cy="135.60663"
         r="9.6490498" />
      <circle
         style="fill:#000000;fill-opacity:1;stroke:none;stroke-width:0.430878;stroke-linejoin:round;stroke-miterlimit:4;stroke-dasharray:none;stroke-opacity:1"
         id="circle2751"
         cx="44.676823"
         cy="135.60663"
         r="3.9557836" />
      <circle
         style="fill:none;fill-opacity:1;stroke:#000000;stroke-width:0.5;stroke-linejoin:round;stroke-miterlimit:4;stroke-dasharray:none;stroke-opacity:1"
         id="circle2915"
         cx="44.676823"
         cy="135.60663"
         r="37.288559" />
    </g>
  </g>
</svg>
