<?xml version="1.0" encoding="UTF-8" standalone="no"?>
<!-- Created with Inkscape (http://www.inkscape.org/) -->

<svg
   width="359.78271mm"
   height="215.86964mm"
   viewBox="0 0 359.78271 215.86965"
   version="1.1"
   id="svg5"
   inkscape:version="1.1.1 (3bf5ae0d25, 2021-09-20)"
   sodipodi:docname="goldencoloradoflag.svg"
   xmlns:inkscape="http://www.inkscape.org/namespaces/inkscape"
   xmlns:sodipodi="http://sodipodi.sourceforge.net/DTD/sodipodi-0.dtd"
   xmlns="http://www.w3.org/2000/svg"
   xmlns:svg="http://www.w3.org/2000/svg">
  <sodipodi:namedview
     id="namedview7"
     pagecolor="#ffffff"
     bordercolor="#666666"
     borderopacity="1.0"
     inkscape:pageshadow="2"
     inkscape:pageopacity="0.0"
     inkscape:pagecheckerboard="0"
     inkscape:document-units="mm"
     showgrid="false"
     fit-margin-top="0"
     fit-margin-left="0"
     fit-margin-right="0"
     fit-margin-bottom="0"
     inkscape:zoom="2"
     inkscape:cx="1015.7309"
     inkscape:cy="509.79289"
     inkscape:window-width="1920"
     inkscape:window-height="1017"
     inkscape:window-x="-8"
     inkscape:window-y="-8"
     inkscape:window-maximized="1"
     inkscape:current-layer="layer1" />
  <defs
     id="defs2">
    <pattern
       id="EMFhbasepattern"
       patternUnits="userSpaceOnUse"
       width="6"
       height="6"
       x="0"
       y="0" />
    <pattern
       id="EMFhbasepattern-8"
       patternUnits="userSpaceOnUse"
       width="6"
       height="6"
       x="0"
       y="0" />
    <clipPath
       clipPathUnits="userSpaceOnUse"
       id="clipPath108085">
      <path
         style="fill:#aa4400;stroke:none;stroke-width:0.264583px;stroke-linecap:butt;stroke-linejoin:miter;stroke-opacity:1"
         d="M 30.853426,-85.759909 54.5483,-105.5201 h 26.1898 v 24.813169 z"
         id="path108087" />
    </clipPath>
  </defs>
  <g
     inkscape:label="Layer 1"
     inkscape:groupmode="layer"
     id="layer1"
     transform="translate(180.07758,222.36975)">
    <path
       style="fill:#013d79;stroke:#000000;stroke-width:0;stroke-linecap:butt;stroke-linejoin:miter;stroke-opacity:1;fill-opacity:1;stroke-miterlimit:4;stroke-dasharray:none"
       d="M -180.07758,-174.98239 H 179.70513 V -62.474889 H -180.07758 Z"
       id="path78364" />
    <rect
       style="opacity:0.999;fill:#01aef0;fill-opacity:1;stroke:#ffffff;stroke-width:0;stroke-miterlimit:4;stroke-dasharray:none;stroke-opacity:1"
       id="rect69634"
       width="359.78271"
       height="44.107967"
       x="-180.07758"
       y="-222.36975" />
    <rect
       style="opacity:0.999;fill:#c1e6fc;fill-opacity:1;stroke:#ffffff;stroke-width:0;stroke-miterlimit:4;stroke-dasharray:none;stroke-opacity:1"
       id="rect69634-1"
       width="359.78271"
       height="3.279392"
       x="-180.07758"
       y="-178.26178" />
    <rect
       style="opacity:0.999;fill:#00aff0;fill-opacity:1;stroke:#ffffff;stroke-width:0;stroke-miterlimit:4;stroke-dasharray:none;stroke-opacity:1"
       id="rect69634-1-3"
       width="359.78271"
       height="6.3136463"
       x="-180.07758"
       y="-62.474888" />
    <rect
       style="opacity:0.999;fill:#429539;fill-opacity:1;stroke:#ffffff;stroke-width:0;stroke-miterlimit:4;stroke-dasharray:none;stroke-opacity:1"
       id="rect69634-8"
       width="359.78271"
       height="49.661137"
       x="-180.07758"
       y="-56.161243" />
    <g
       aria-label="BLACK"
       id="text15983"
       style="font-size:18.6434px;line-height:1.25;font-family:georgia;-inkscape-font-specification:georgia;stroke-width:0.466086" />
    <g
       aria-label="City"
       transform="scale(0.99878319,1.0012183)"
       id="text29492"
       style="font-weight:bold;font-size:23.4873px;line-height:1.25;font-family:arial;-inkscape-font-specification:'arial Bold';stroke-width:0.587185" />
    <g
       aria-label="rt"
       transform="scale(0.93709348,1.0671294)"
       id="text33981"
       style="font-weight:bold;font-size:39.3235px;line-height:1.25;font-family:Verdana;-inkscape-font-specification:'Verdana Bold';stroke-width:0.983093" />
    <g
       aria-label="o"
       transform="scale(0.99918563,1.000815)"
       id="text33981-54"
       style="font-weight:bold;font-size:45.4007px;line-height:1.25;font-family:arial;-inkscape-font-specification:'arial Bold';stroke-width:0" />
    <g
       aria-label="C"
       transform="scale(1.0155397,0.98469812)"
       id="text33981-5"
       style="font-weight:bold;font-size:46.2515px;line-height:1.25;font-family:arial;-inkscape-font-specification:'arial Bold';stroke-width:1.1563" />
    <path
       style="fill:#ffffff;stroke:#000000;stroke-width:0;stroke-linecap:butt;stroke-linejoin:miter;stroke-opacity:1;fill-opacity:1;stroke-miterlimit:4;stroke-dasharray:none"
       d="m -180.1222,-68.292077 v -63.050033 c 26.99991,22.02139 53.07989,46.082157 87.502552,55.152046 7.827897,2.062541 30.69952,7.496395 30.69952,7.496395 z"
       id="path80704"
       sodipodi:nodetypes="ccscc" />
    <path
       style="fill:#ffffff;stroke:#000000;stroke-width:0;stroke-linecap:butt;stroke-linejoin:miter;stroke-opacity:1;stroke-miterlimit:4;stroke-dasharray:none"
       d="m -144.31599,-110.043 c 25.26533,18.348656 51.599996,29.466867 82.369435,37.861199 6.054964,1.651878 23.600963,1.766917 24.610631,1.514499 1.009666,-0.252415 1.514499,-0.504833 1.514499,-0.504833 -32.412759,-5.606534 -59.98965,-21.838162 -85.802135,-45.177185 -3.48046,-3.30198 -4.46213,-4.64062 -4.46213,-4.64062 z"
       id="path91202"
       sodipodi:nodetypes="csscccc" />
    <path
       style="fill:#ffffff;stroke:#000000;stroke-width:0;stroke-linecap:butt;stroke-linejoin:miter;stroke-opacity:1;stroke-miterlimit:4;stroke-dasharray:none"
       d="m -106.11113,-109.88029 c 17.95313,16.127366 36.666119,25.899607 58.530385,33.277722 4.302559,1.4519 16.770463,1.553013 17.487916,1.331153 0.717452,-0.221858 1.076179,-0.443718 1.076179,-0.443718 -23.031983,-4.927807 -42.627676,-19.194435 -60.969612,-39.708047 -2.473158,-2.90224 -3.170717,-4.07883 -3.170717,-4.07883 z"
       id="path91202-5"
       sodipodi:nodetypes="csscccc" />
    <path
       style="fill:#ffffff;stroke:#000000;stroke-width:0;stroke-linecap:butt;stroke-linejoin:miter;stroke-opacity:1;fill-opacity:1;stroke-miterlimit:4;stroke-dasharray:none"
       d="m 13.020875,-68.87873 c 0,0 4.039004,-4.438946 9.213548,-4.438946 H 180.28478 v 5.340192 z"
       id="path92506"
       sodipodi:nodetypes="csccc" />
    <path
       style="fill:#ffffff;fill-opacity:1;stroke:#000000;stroke-width:0;stroke-linecap:butt;stroke-linejoin:miter;stroke-miterlimit:4;stroke-dasharray:none;stroke-opacity:1"
       d="m 63.936984,-76.622791 c 0,0 2.806314,-3.846543 6.401606,-3.846543 h 109.81395 v 4.627512 z"
       id="path92506-6"
       sodipodi:nodetypes="csccc" />
    <path
       style="fill:#ffffff;fill-opacity:1;stroke:#000000;stroke-width:0;stroke-linecap:butt;stroke-linejoin:miter;stroke-miterlimit:4;stroke-dasharray:none;stroke-opacity:1"
       d="m 96.181199,-82.313519 c 0,0 2.044574,-3.921284 4.663971,-3.921284 h 80.00629 v 4.717428 z"
       id="path92506-6-7"
       sodipodi:nodetypes="csccc" />
    <path
       style="fill:#ffffff;stroke:#000000;stroke-width:0;stroke-linecap:butt;stroke-linejoin:miter;stroke-opacity:1;stroke-miterlimit:4;stroke-dasharray:none"
       d="m 87.740837,-84.045331 c 0,0 20.938803,-12.514368 23.083043,-13.904682 2.14424,-1.390314 4.28681,-4.547547 5.29611,-4.927117 1.00931,-0.37958 3.9134,1.00598 4.79687,1.00514 0.88344,-7.9e-4 0.76253,5.615559 0.76253,5.615559 0,0 0.63116,0.125613 1.38753,-0.821661 0.75636,-0.947277 1.32204,-3.345768 1.82663,-3.598658 0.50459,-0.2529 5.48971,-0.38381 6.24832,1.066879 0.75861,1.450681 1.83163,1.702085 2.02218,3.027095 0.19056,1.325009 0.25731,5.174303 0.63651,5.804987 0.37923,0.630685 2.33664,1.890924 2.84118,1.574927 0.50453,-0.315997 3.90371,-9.279998 4.78676,-9.722559 0.88305,-0.442563 2.081,-1.516459 2.71272,-0.822912 0.63169,0.693552 0.44326,1.640292 2.33598,1.196779 1.8927,-0.443513 6.05443,-3.791956 8.32712,-2.784436 2.2727,1.00753 16.13091,8.25145 17.86684,8.849302 1.73593,0.597856 7.10107,1.981092 7.10107,1.981092 v -4.101949 c 0,0 -9.63078,-1.055127 -14.54414,-6.360445 -4.91334,-5.30532 -5.72146,-10.52526 -7.776,-12.62053 -2.05457,-2.09527 -2.85848,-2.85308 -2.90409,-3.92395 -0.0456,-1.07087 0,-4.86385 0,-4.86385 h -34.94297 c 0,0 -4.36187,11.90646 -4.89656,12.71015 -0.5347,0.80369 -9.27378,7.95135 -9.00571,8.30807 0.26808,0.35672 -0.89016,2.410396 -1.60377,2.768039 -0.71361,0.357645 -15.96485,10.188731 -17.302319,11.439389 -1.337469,1.250662 -1.894178,2.366722 -1.402715,3.035578 0.491464,0.668859 2.346881,0.06976 2.346881,0.06976 z"
       id="path100484" />
    <path
       style="fill:#ffffff;stroke:none;stroke-width:0.264583px;stroke-linecap:butt;stroke-linejoin:miter;stroke-opacity:1;fill-opacity:1"
       d="m -20.458219,-72.038357 c 0,0 23.3997387,-1.955424 30.599739,-5.049173 7.2,-3.093752 24.124817,-10.219076 30.574699,-15.183006 6.449883,-4.963933 14.956242,-11.520054 14.956242,-11.520054 h 44.157003 c 0,0 -15.794707,13.199049 -16.653232,14.65507 -0.858523,1.456018 -5.153139,6.619441 -6.278364,5.826752 -1.125228,-0.792689 -4.369988,-4.626091 -12.172947,-2.237486 -7.802962,2.388605 -8.926941,2.91883 -9.521817,3.382412 -0.594876,0.463582 -2.380501,0.795996 -6.548871,-0.456848 -4.168371,-1.252842 -5.258684,-0.09426 -6.316613,0.336682 -1.057925,0.430946 -7.073299,4.570733 -7.205527,4.637003 -0.132231,0.06627 -11.608215,0.407816 -14.78234,1.33685 -3.174126,0.929034 -11.5054427,4.178032 -18.5819223,5.375327 -7.0764769,1.197296 -22.2260497,-1.103529 -22.2260497,-1.103529 z"
       id="path101735" />
    <ellipse
       style="opacity:0.999;fill:#ffee00;fill-opacity:1;stroke:none;stroke-width:0;stroke-miterlimit:4;stroke-dasharray:none;stroke-opacity:1"
       id="path106553"
       cx="55.054573"
       cy="-104.75027"
       rx="18.603586"
       ry="17.970865" />
    <ellipse
       style="opacity:0.999;fill:#ffee00;fill-opacity:1;stroke:none;stroke-width:0;stroke-miterlimit:4;stroke-dasharray:none;stroke-opacity:1"
       id="path106553-4"
       cx="55.213924"
       cy="-104.88025"
       rx="18.603586"
       ry="17.970865"
       clip-path="url(#clipPath108085)"
       transform="translate(-0.15934911,0.12998534)" />
    <path
       style="fill:none;stroke:#013d79;stroke-width:3.2;stroke-linecap:butt;stroke-linejoin:miter;stroke-miterlimit:4;stroke-dasharray:none;stroke-opacity:1"
       d="M 39.696842,-93.475873 54.388949,-105.39011 H 80.578746"
       id="path109057"
       sodipodi:nodetypes="ccc" />
  </g>
</svg>
